<?xml version="1.0" encoding="utf-8"?>
<!-- Generator: Adobe Illustrator 22.1.0, SVG Export Plug-In . SVG Version: 6.00 Build 0)  -->
<svg version="1.1" xmlns="http://www.w3.org/2000/svg" xmlns:xlink="http://www.w3.org/1999/xlink" x="0px" y="0px"
	 viewBox="0 0 106.5 107.1" style="enable-background:new 0 0 106.5 107.1;" xml:space="preserve">
<style type="text/css">
	.st0{fill:#E7F5F6;}
	.st1{fill:#B9E3E6;}
	.st2{fill:#FFEFD5;}
	.st3{fill:#FFFFFF;}
	.st4{fill:#4B4B4B;}
</style>
<g id="Layer_1">
</g>
<g id="_x5F_">
	<g id="Icon_4">
		<path id="BG_7_" class="st0" d="M88.2,70.5h-69c-3.9,0-7,3.2-7,7s3.2,7,7,7h69c3.9,0,7-3.2,7-7S92.1,70.5,88.2,70.5z"/>
		<g id="Colors_3_">
			<path class="st1" d="M22.2,63.5h2.1v21.1h-2.1V63.5z M82.8,84.6h2.1V63.5h-2.1V84.6z M19.8,52.6c-0.6,0-1.1,0.5-1.1,1.1
				s0.5,1.1,1.1,1.1h37.3c0.1-0.3,0.2-0.5,0.3-0.8l0.9-1.3h-1.4H19.8z M87.4,52.6H67.6h-1.4l-1.4,2.1h1.4h21.1
				c0.6,0,1.1-0.5,1.1-1.1S87.9,52.6,87.4,52.6z M37.7,83.2c0-1.1,0.4-2.1,2.9-2.1c1.8,0,2.5,0.5,2.8,1.1l0.7-24.1
				c0-0.6,0.6-0.7,0.6,0L45.4,82c0.4-0.5,1.1-0.9,2.7-0.9c2.6,0,3,1,3,2l0-27l-13.4,0L37.7,83.2z M33.9,36.8l3.3,3.3
				c0.3,2.7,0.5,3.8,0.5,11.1l13.4,0c0.1-6.2,0.5-8.9,0.8-11.4l3.4-3.4c-1.6-1.6-3.4-3.1-6-3.1h-1.3l-3.7,2.5l-3.7-2.5h-1.3
				C36.9,33.2,34.6,34.8,33.9,36.8z"/>
			<path class="st2" d="M61.4,50L60,42.9c-0.6-3,1.4-6,4.4-6.6c1.5-0.3,3,0.7,3.3,2.2l2.5,12.7h-4.5l0,0c1.5-2.2,2-4.8,1.5-7.4
				l-4.1,0.8c0.3,1.5,0,3-0.8,4.2L61.4,50L61.4,50z M69.8,57.1c0.1-0.3,0.2-0.7,0.3-1h-7.6l-0.1,0.1c-0.2,0.3-0.5,0.6-0.8,0.7l0,0.1
				l-1.1,5.6c-0.5,2.7-0.5,5.5,0,8.2l1.9,9.8h3.9L65,68.6l0.3-0.7L71,78.6l3.7-1.5l-5-12V57.1z"/>
			<path class="st3" d="M60.2,35.8c-2.8,0-4.2-3.3-4.2-5.6c0-1.7,0.4-5.6,4.2-5.6c3.8,0,4.2,3.9,4.2,5.6
				C64.5,32.5,63,35.8,60.2,35.8z M63.1,44.6c0.3,1.5,0,3-0.8,4.2l-3.4,5.1c-0.6,1-0.4,2.3,0.6,2.9c1,0.6,2.3,0.4,2.9-0.6l3.4-5.1
				c1.5-2.2,2-4.8,1.5-7.4L63.1,44.6z M57.8,83.5c0,0.4,0.3,0.7,0.7,0.7h7c0.4,0,0.7-0.3,0.7-0.7v-2.8h-5.6
				C59.1,80.7,57.8,82,57.8,83.5z M74.7,77.1l-5.2,2.2c-1.4,0.6-2.1,2.2-1.5,3.7c0.1,0.4,0.6,0.5,0.9,0.4l6.5-2.7
				c0.4-0.1,0.5-0.6,0.4-0.9L74.7,77.1z M48.6,26.9c0-1.7-0.4-5.6-4.2-5.6s-4.2,3.9-4.2,5.6c0,2.4,1.5,5.6,4.2,5.6
				S48.6,29.2,48.6,26.9z M40.5,81.1c-2.5,0-2.8,1-2.8,2.1v1.1h5.6v-1.1C43.4,82.1,43,81.1,40.5,81.1z M48.3,81.1
				c-2.5,0-2.8,1-2.8,2.1v1.1h5.6v-1.1C51.1,82.1,50.8,81.1,48.3,81.1z M33.9,36.8c-0.3,0.6-0.4,1.4-0.4,2.1v12.3l4.2,0
				c0-7.2-0.1-8.3-0.5-11.1L33.9,36.8z M33.5,58.2c0,1.2,0.9,2.1,2.1,2.1c1.2,0,2.1-0.9,2.1-2.1v-2.1h-4.2V58.2z M58.6,43.1
				c-0.2-1-0.2-2.6,0-3.5c-1.3-1.3-2.7-2.7-3.3-3.3l-3.1,3.1l6.8,6.3L58.6,43.1z"/>
		</g>
		<path id="Line_4_" class="st4" d="M19.8,54.3h37.3V55H23.7v8.1h1.1v21.5H24V63.8h-1.4v20.8h-0.7V63.1H23V55h-3.2
			c-0.8,0-1.4-0.6-1.4-1.4c0-0.8,0.6-1.4,1.4-1.4h38.5v0.7H19.8c-0.4,0-0.7,0.3-0.7,0.7C19.1,54,19.4,54.3,19.8,54.3z M87.4,52.2
			H66.2v0.7h21.1c0.4,0,0.7,0.3,0.7,0.7c0,0.4-0.3,0.7-0.7,0.7H64.8V55h18.7v8.1h-1.1v21.5h0.7V63.8h1.4v20.8h0.7V63.1h-1.1V55h3.2
			c0.8,0,1.4-0.6,1.4-1.4C88.8,52.9,88.1,52.2,87.4,52.2z M55.7,30.2c0-3,1.2-6,4.6-6c3.4,0,4.6,3,4.6,6c0,2.6-1.6,6-4.6,6
			C57.3,36.2,55.7,32.8,55.7,30.2z M56.4,30.2c0,2.2,1.3,5.3,3.9,5.3c2.5,0,3.9-3.1,3.9-5.3c0-1.6-0.4-5.3-3.9-5.3
			C56.7,24.9,56.4,28.6,56.4,30.2z M76.1,79.6c0.1,0.3,0.1,0.5,0,0.8c-0.1,0.3-0.3,0.5-0.6,0.6l-6.5,2.7c-0.1,0.1-0.3,0.1-0.4,0.1
			c-0.4,0-0.8-0.2-1-0.7c-0.7-1.6,0.1-3.5,1.7-4.1l1.2-0.5l-5.2-9.7l1.1,11.6c0,0,0,3.2,0,3.2c0,0.6-0.5,1.1-1.1,1.1h-7
			c-0.6,0-1.1-0.5-1.1-1.1c0-1.7,1.4-3.2,3.2-3.2h1.3L60.1,71c-0.6-2.8-0.6-5.6,0-8.4l1-5.2c-0.2,0-0.3,0.1-0.5,0.1
			c-0.5,0-1-0.1-1.4-0.4c-1.1-0.8-1.4-2.3-0.7-3.4L61,50l-1.4-7c-0.6-3.2,1.5-6.4,4.7-7c0.8-0.2,1.7,0,2.4,0.5
			c0.7,0.5,1.2,1.2,1.3,2l2.5,12.8l-0.7,0.1l-2.5-12.8c-0.1-0.6-0.5-1.2-1-1.6c-0.5-0.4-1.2-0.5-1.8-0.4c-2.9,0.6-4.7,3.4-4.1,6.2
			l1.3,6.3l0.4-0.5c0.8-1.2,1.1-2.6,0.8-4l-0.4-2.2c0-0.2,0.1-0.4,0.3-0.4c0.2,0,0.4,0.1,0.4,0.3l0.4,2.2c0.3,1.6,0,3.2-0.9,4.5
			l-3.4,5.1c-0.5,0.8-0.3,1.9,0.5,2.4c0.4,0.3,0.9,0.4,1.3,0.3c0.5-0.1,0.9-0.4,1.1-0.7l3.4-5.1c1.4-2.1,1.9-4.6,1.4-7.1l-0.7-3.7
			c0-0.2,0.1-0.4,0.3-0.4c0.2,0,0.4,0.1,0.4,0.3l0.7,3.7c0.5,2.7,0,5.4-1.5,7.7l-3.4,5.1c-0.2,0.3-0.5,0.5-0.8,0.7l-1.1,5.6
			c-0.5,2.7-0.5,5.4,0,8.1l1.9,9.5h3.2l-1.2-11.8L69,58.3c0.3-0.7,0.6-1.5,0.7-2.3l0.7,0.2c-0.1,0.3-0.2,0.6-0.3,1V65l5,12
			L76.1,79.6z M65.9,81.1h-5.3c-1.4,0-2.5,1.1-2.5,2.5c0,0.2,0.2,0.4,0.4,0.4h7c0.2,0,0.4-0.2,0.4-0.4V81.1z M71.2,78.2l3.1-1.3
			l-4.9-11.9v-6l-3.7,8.8L71.2,78.2z M75.5,79.9l-0.9-2.3l-4.9,2c-1.3,0.5-1.9,2-1.3,3.2c0.1,0.2,0.3,0.3,0.5,0.2l6.5-2.7
			c0.1,0,0.2-0.1,0.2-0.2C75.5,80.1,75.5,80,75.5,79.9z M39.8,26.9c0-3,1.2-6,4.6-6c3.4,0,4.6,3,4.6,6c0,2.6-1.6,6-4.6,6
			C41.5,32.9,39.8,29.5,39.8,26.9z M40.5,26.9c0,2.2,1.3,5.3,3.9,5.3c2.5,0,3.9-3.1,3.9-5.3c0-1.6-0.4-5.3-3.9-5.3
			C40.9,21.6,40.5,25.3,40.5,26.9z M51.5,56.1l0,27c0,0,0,0.1,0,0.1v0.7v0.7h-6.3v-0.3l-0.7-23.9l-0.7,23.9v0.3h-6.3v-0.7v-0.7
			c0,0,0-23.3,0-23.3c-0.4,0.5-1.1,0.7-1.8,0.7c-1.4,0-2.5-1.1-2.5-2.5v-2.1h0.7v2.1c0,1,0.8,1.8,1.8,1.8c1,0,1.8-0.8,1.8-1.8
			c0,0,0-2.1,0-2.1h0.7l0,25.3c0.5-0.4,1.2-0.6,2.5-0.6c1.3,0,2.1,0.3,2.5,0.7l0.7-23.3c0-0.5,0.3-0.8,0.6-0.8
			c0.3,0,0.6,0.3,0.6,0.8l0.7,23.3c0.5-0.4,1.2-0.7,2.5-0.7c1.2,0,2,0.3,2.5,0.6l0-25.3H51.5z M38.1,83.2l0,0.7H43v-0.7
			c0-0.9-0.2-1.8-2.5-1.8C38.3,81.4,38.1,82.3,38.1,83.2z M45.8,83.9h4.9l0-0.8c0-0.8-0.3-1.6-2.5-1.6c-2.3,0-2.5,0.9-2.5,1.8V83.9z
			 M33.9,38.8c0-0.5,0.1-1,0.2-1.4l2.9,2.9c0.3,2.6,0.4,3.7,0.5,10.9l0.7,0c0-7.3-0.2-8.4-0.5-11.1l0-0.1l-3.3-3.3
			c0.7-1.8,2.9-3.1,5.1-3.1h1.2l3.8,2.5l3.8-2.5h1.2c2.4,0,4,1.4,5.5,2.8l-3.2,3.2c-0.1,0.1-0.1,0.1-0.1,0.2c0,0-0.1,0.9-0.1,0.9
			c-0.3,2.2-0.6,5-0.7,10.5l0.7,0c0.1-5.4,0.4-8.1,0.7-10.4l0.1-0.8l0,0l6.8,6.3l0.5-0.5l-6.8-6.3l2.6-2.6l3,3l0.5-0.5l-3.3-3.3
			c-1.6-1.6-3.4-3.2-6.2-3.2H48l-3.6,2.4l-3.6-2.4h-1.4c-2.6,0-5.1,1.6-5.9,3.8c0,0-0.1,0.2-0.1,0.2c-0.2,0.6-0.4,1.3-0.4,2v12.3
			h0.7V38.8z"/>
	</g>
</g>
</svg>
