<?xml version="1.0" encoding="utf-8"?>
<!-- Generator: Adobe Illustrator 22.1.0, SVG Export Plug-In . SVG Version: 6.00 Build 0)  -->
<svg version="1.1" id="Layer_1" xmlns="http://www.w3.org/2000/svg" xmlns:xlink="http://www.w3.org/1999/xlink" x="0px" y="0px"
	 viewBox="0 0 106.5 107.1" style="enable-background:new 0 0 106.5 107.1;" xml:space="preserve">
<style type="text/css">
	.st0{clip-path:url(#SVGID_2_);}
	.st1{fill:#2F3E52;}
	.st2{fill:#73B9D0;}
	.st3{filter:url(#Adobe_OpacityMaskFilter);}
	.st4{filter:url(#Adobe_OpacityMaskFilter_1_);}
	.st5{mask:url(#SVGID_3_);fill:url(#SVGID_4_);}
	.st6{fill:url(#SVGID_5_);}
	.st7{fill:#FFFFFF;}
	.st8{fill:#D1E7EF;}
</style>
<g>
	<g>
		<g>
			<defs>
				
					<ellipse id="SVGID_1_" transform="matrix(0.2071 -0.9783 0.9783 0.2071 -10.1804 94.5806)" cx="53.3" cy="53.6" rx="53.1" ry="53.1"/>
			</defs>
			<use xlink:href="#SVGID_1_"  style="overflow:visible;fill:#1B89B0;"/>
			<clipPath id="SVGID_2_">
				<use xlink:href="#SVGID_1_"  style="overflow:visible;"/>
			</clipPath>
			<g class="st0">
				<g>
					<path class="st1" d="M121.6,155.8c3,2.2,4.1,0,4.1,0c-1.1-1.8-5.1-4.2-5.1-4.2c-2.2-1.8-1.8-0.5-5.6-3.1
						c-3.8-2.6-6.8-14.1-6.8-14.1c-4.9-18.5-8.6-17.7-10.8-25.3c-2.2-7.6-5.5-18.5-5.2-32.7C92.5,62.2,76.6,57.5,75,56.9
						c-1.6-0.6-7.2-2.9-10-4.8c-0.3-0.2-0.9-4.5-1.1-4.5l-1.6,0.1c-0.9-3.5-1.8-9.1,0.6-10.6c4.5-2.8,8.9-11.5,5.5-21.1
						c-3.7-10.5-19.6-15-28.8-8.3c-6.2,4.5-2,6.5-2,6.5s-0.4,2.8-2.2,5.4c0,0-1.5,1.6-0.4,3.8c0,0-1.8,3.4-3.8,5.1
						c0,0-1.4,1.8,0.1,2.9c0.3,0.2,0.6,0.3,1.1,0.5c0.2,0.1,0.5,0.1,0.7,0.2c0,0,0.5,0.9-0.4,1.7c-1.4,1.3,1,1.3,2,1.8
						c0.2,0.1,0.4,0.2,0.4,0.4c0,0.2,0,0.3-0.1,0.5c-0.7,1-4.4,0.4-2,2.6c0,0,1.2,0.3,0.5,1.7c-0.7,1.4-1,3.5,2.4,4
						c2.7,0.4,6.2,0.8,7.3,3.7l-1.4,0c-0.2,0-0.8,3.2-1.1,3.4c-2.8,1.9-7.8,4.7-9.4,5.2c-1.6,0.6-17.5,5.2-17.2,19.5
						c0.3,14.3-3.1,25.1-5.2,32.7c-2.2,7.6-5.8,6.8-10.8,25.3c0,0-3.1,11.5-6.8,14.1c-3.8,2.6-3.4,1.3-5.6,3.1c0,0-4,2.3-5.1,4.2
						c0,0,1,2.2,4.1,0c3-2.2,4.2-1.4,3.5,0c-0.6,1.4-8.2,13.3-6.9,14.8c1.5,1.6,6.4-8.3,7.3-7.8c0.8,0.4-1.5,5.7-2.3,7.6
						c-1.4,3.2-0.1,5,1.3,3.1c1.9-2.7,3.7-9.2,4.5-9c0.8,0.2-0.4,8.1-0.2,10.4c0.2,2.2,1.9,2.1,2.5-1.2c0.6-3.3,0.8-8.4,2-8.2
						c1.1,0.2-0.4,8.8,1.5,8.5c0.8-0.1,0.9-0.7,1.6-6.5c1-7.3,2-8.2,2.7-10.3c0.7-2.1,0.6-4.1,1.1-6.9c0.5-2.8,4.9-10.1,9.1-17.1
						c4.2-7,5.4-13.9,6.7-16.6c1.3-2.6,7.4-17.8,8.1-21.7c0,0,2.5,6.5,3.4,10.9c0.9,4.5-0.9,14.7-3.4,20.6c-2.5,5.9-6.5,18.2-4.3,41
						c2.2,22.8,3.3,44.3,3.1,49.2c-0.2,4.8-3.9,20.6-3.4,28.1c0.5,7.5,5,31.5,5,34.7c0,3.1-1.7,8.6-7.3,15c0,0-1.1,3.3,2.7,4.5
						c3.7,1.3,4.5-0.3,5.8,0.9c1.2,1.2,3.6,1.9,5.3-2.3c1.7-4.2,3.6-10.5,2.7-14.8c-0.9-4.4,2.3-25,4.8-34.5
						c2.5-9.5,0.6-22.3,1-27.4c0.7-8.8,4.5-29.3,5.6-36.6c0,0,1.3-19.7,4.9-22.5c3.7,2.8,4.9,22.5,4.9,22.5
						c1.1,7.3,4.9,27.8,5.6,36.6c0.4,5-1.5,17.8,1,27.4c2.5,9.5,5.8,30.1,4.8,34.5c-0.9,4.4,0.9,10.6,2.7,14.8
						c1.7,4.2,4.1,3.6,5.3,2.3c1.2-1.3,2,0.3,5.8-0.9c3.7-1.2,2.7-4.5,2.7-4.5c-5.6-6.4-7.3-11.9-7.3-15c0-3.1,4.5-27.2,5-34.7
						c0.5-7.5-3.3-23.3-3.4-28.1c-0.2-4.8,0.9-26.4,3.1-49.2c2.2-22.8-1.8-35.1-4.3-41c-2.5-5.9-4.4-16.1-3.4-20.6
						c0.9-4.5,3.4-10.9,3.4-10.9c0.7,3.9,6.9,19,8.1,21.7c1.3,2.6,2.5,9.6,6.7,16.6c4.2,7,8.5,14.3,9.1,17.1
						c0.5,2.8,0.4,4.8,1.1,6.9c0.7,2.1,1.7,2.9,2.7,10.3c0.8,5.8,0.8,6.3,1.6,6.5c2,0.3,0.4-8.3,1.5-8.5c1.1-0.2,1.3,4.9,2,8.2
						c0.6,3.3,2.3,3.4,2.5,1.2c0.2-2.2-1-10.1-0.2-10.4c0.8-0.2,2.6,6.3,4.5,9c1.4,1.9,2.7,0.2,1.3-3.1c-0.8-1.9-3.1-7.2-2.3-7.6
						c0.9-0.5,5.9,9.5,7.3,7.8c1.4-1.5-6.2-13.4-6.9-14.8C117.5,154.5,118.6,153.6,121.6,155.8z"/>
					<path class="st2" d="M75.6,90.7c-0.1-4.1-0.7-8.4-1.3-10.8c-1.1-4.3-2.2-6.7-2.8-7.7c-0.3-4.1-2.7-6.4-4-7.3
						c-0.2-1.6-2-3.4-4-4.1c-1.8-0.6-3.5-0.2-4.8,1.2c-1.9,2-2.2,4.3-2.2,5.9c0.1,1.5,0.4,2.6,0.6,2.9c-0.4,0.4-0.6,0.8-0.8,1.2
						c-0.7-1-0.8-2.1-0.9-2.9c0-0.1,0-0.3-0.1-0.4c-0.1-0.6,0-5.2,0.1-8.3c0.3-3.7,1-12.3,0.5-15.4c-0.6-3.8,2.6-14.1-5.7-18.4
						c-8.7-4.5-15.3-0.7-16.2,1.1c-0.7,1.4-2.1,2.9-2.6,3.6c0.3,0.2,0.6,0.3,1.1,0.5c0.2-0.6,1-2,3.1-1.1c2.7,1.1,7.3,3,10.5,1.4
						c2.3-1.1,3.7,0.9,4.3,3.2c-0.4,0.5-1.4,1-3.1-0.4c-2.6-2.1-9-0.9-9.8-0.3c-0.5,0.4-1.8,0.6-2.6,0.7c0.2,0.1,0.4,0.2,0.4,0.4
						c0,0.2,0,0.3-0.1,0.5c0.6,0,1.2,0.1,1.7,0.3c0.9,0.5,1.6,4.8,3.5,3.6c1.5-0.9-2.3-2.6-0.8-3.5c1.5-0.9,5.9-1.5,7.4,0.5
						c1.5,1.9-0.9,2.2-0.4,3c0.6,0.8,2.1,0.1,2.7-2.7c0.3-1.5,0.8-1.4,1.3-1c0.1,0.5,0.1,1.1,0,1.5c-0.2,2.9,0.3,4.2-0.5,7.5
						c-1.6,6.5,0.4,6.4,1.1,8.4c0,1.2,0.1,2.5,0.2,3.7c0.1,2,0.4,10.2,0.2,11c0,0.1,0,0.3-0.1,0.4c-0.1,0.8-0.2,1.9-0.9,2.9
						c-0.2-0.4-0.5-0.8-0.8-1.2c0.1-0.3,0.5-1.4,0.5-2.9c0.1-1.6-0.3-3.9-2.1-5.9c-1.3-1.4-3-1.8-4.8-1.2c-2,0.7-3.8,2.5-4,4.1
						c-1.3,0.9-3.7,3.2-4,7.3c-0.6,1.1-1.7,3.4-2.8,7.7c-0.6,2.4-1.2,6.7-1.3,10.8c-0.1,3.3,0.2,7.4,1.9,8.7
						c0.3,0.2,0.7,0.4,1.1,0.4c0.3,0,0.5,0,0.8-0.1c0,0,0.1,0.1,0.1,0.1c1.1,0.2,2.1,0.2,3,0.2c4.8,0,7.9-1.9,8.3-2.1
						c0.2,0,0.4-0.1,0.5-0.1c1-0.3,1.7-1.1,2.3-2.3c1.2-2.6-0.3-5.5-0.5-5.9c1.2-2.9,0.7-6.2,0.6-6.8c1.4-1.5,1.9-3.2,2-4.5
						c0.2-1.4-0.1-2.6-0.2-3c0.3-0.2,0.7-0.4,1.1-0.8c0.6-0.5,0.9-0.6,0.9-0.6c0,0,0,0,0,0c0,0,0,0,0.1,0c0,0,0.3,0,0.9,0.6
						c0.4,0.4,0.8,0.6,1.1,0.8c-0.1,0.4-0.3,1.5-0.2,3c0.1,1.3,0.6,3,2,4.5c-0.1,0.5-0.6,3.9,0.6,6.8c-0.3,0.5-1.8,3.3-0.5,5.9
						c0.6,1.2,1.3,2,2.3,2.3c0.2,0.1,0.4,0.1,0.5,0.1c0.3,0.2,3.4,2.1,8.3,2.1c0.9,0,1.9-0.1,3-0.2c0,0,0.1,0,0.1-0.1
						c0.3,0.1,0.6,0.1,0.8,0.1c0.4,0,0.8-0.1,1.1-0.4C75.3,98.1,75.6,94,75.6,90.7z"/>
				</g>
				<g>
					<g>
						<g>
							<defs>
								<filter id="Adobe_OpacityMaskFilter" filterUnits="userSpaceOnUse" x="59.5" y="76.3" width="5.7" height="5.5">
									<feFlood  style="flood-color:white;flood-opacity:1" result="back"/>
									<feBlend  in="SourceGraphic" in2="back" mode="normal"/>
								</filter>
							</defs>
							<mask maskUnits="userSpaceOnUse" x="59.5" y="76.3" width="5.7" height="5.5" id="SVGID_3_">
								<g class="st3">
									<defs>
										<filter id="Adobe_OpacityMaskFilter_1_" filterUnits="userSpaceOnUse" x="59.5" y="76.3" width="5.7" height="5.5">
											<feFlood  style="flood-color:white;flood-opacity:1" result="back"/>
											<feBlend  in="SourceGraphic" in2="back" mode="normal"/>
										</filter>
									</defs>
									<mask maskUnits="userSpaceOnUse" x="59.5" y="76.3" width="5.7" height="5.5" id="SVGID_3_">
										<g class="st4">
										</g>
									</mask>
									
										<linearGradient id="SVGID_4_" gradientUnits="userSpaceOnUse" x1="498.6982" y1="708.2012" x2="504.8358" y2="711.8518" gradientTransform="matrix(-1 0 0 -1 563.8164 788.4375)">
										<stop  offset="0.235" style="stop-color:#000000"/>
										<stop  offset="0.3204" style="stop-color:#1B1B1B"/>
										<stop  offset="0.4535" style="stop-color:#3E3E3E"/>
										<stop  offset="0.5882" style="stop-color:#5A5A5A"/>
										<stop  offset="0.7237" style="stop-color:#6D6D6D"/>
										<stop  offset="0.8604" style="stop-color:#797979"/>
										<stop  offset="1" style="stop-color:#7D7D7D"/>
									</linearGradient>
									<path class="st5" d="M59.5,77.5l3.1,4.3c0,0,3.1-1.5,2.5-4.6l-5-0.9L59.5,77.5z"/>
								</g>
							</mask>
							
								<linearGradient id="SVGID_5_" gradientUnits="userSpaceOnUse" x1="498.6982" y1="708.2012" x2="504.8358" y2="711.8518" gradientTransform="matrix(-1 0 0 -1 563.8164 788.4375)">
								<stop  offset="0.235" style="stop-color:#FFFFFF"/>
								<stop  offset="0.2446" style="stop-color:#FFFFFF"/>
								<stop  offset="1" style="stop-color:#FFFFFF"/>
							</linearGradient>
							<path class="st6" d="M59.5,77.5l3.1,4.3c0,0,3.1-1.5,2.5-4.6l-5-0.9L59.5,77.5z"/>
							<g>
								<path class="st7" d="M59.3,76.9c0-0.4,0.3-0.6,0.6-0.6c0.3,0,0.6,0.3,0.6,0.6c0,0.4-0.3,0.6-0.6,0.6
									C59.5,77.6,59.3,77.3,59.3,76.9z"/>
							</g>
						</g>
						<path class="st8" d="M59.5,77.3c-4-1.9-5-4.3-6-7.6c-1-3.1-1.2-20.9-0.7-26.3c0.5-5.1,0.4-7.8-0.3-8.2c-0.1-0.1-0.4,0-1,0.5
							c-2.1,1.8-3.2,1.4-4.7,0.6c-0.7-0.4-1.5-0.8-2.7-1c-3.4-0.5-6.8,1.1-6.8,1.1l-0.1,0.2h-6.5l-0.1-0.2c-0.1,0-1.8-0.5-3.5,0.8
							c-2.1,1.7-3.2,5.3-3.2,10.6c0,7-2.4,12.4-6.5,14.7c-2.9,1.6-6.3,1.5-9.1-0.2c-4-2.4-6.2-7.4-6-13.6C2.5,33.9,2.2,32,2.1,31.8
							c0,0.1,0.2,0.3,0.5,0.4l0.1-0.6l-0.6-0.3L2.9,31c0.5,0.1,0.6,0.4,0.7,3.2C3.6,37,3.5,42,3.3,49c-0.2,5.7,1.8,10.3,5.4,12.5
							c2.5,1.5,5.4,1.5,7.9,0.2c3.7-2.1,5.9-7.1,5.9-13.6c0-5.8,1.3-9.7,3.7-11.6c2-1.6,4.1-1.1,4.5-1.1h6.1c0.7-0.4,4-1.5,7.4-1.1
							c1.4,0.2,2.4,0.7,3.1,1.1c1.2,0.6,1.7,0.9,3.3-0.5c0.9-0.8,1.8-1,2.4-0.7c1.5,0.8,1.5,4,1,9.4c-0.5,5.6-0.2,23,0.6,25.8
							c0.9,3.1,1.8,5.2,5.3,6.8L59.5,77.3z"/>
					</g>
				</g>
			</g>
		</g>
	</g>
</g>
</svg>
