<?xml version="1.0" encoding="utf-8"?>
<!-- Generator: Adobe Illustrator 22.1.0, SVG Export Plug-In . SVG Version: 6.00 Build 0)  -->
<svg version="1.1" id="Layer_1" xmlns="http://www.w3.org/2000/svg" xmlns:xlink="http://www.w3.org/1999/xlink" x="0px" y="0px"
	 viewBox="0 0 106.5 107.1" style="enable-background:new 0 0 106.5 107.1;" xml:space="preserve">
<style type="text/css">
	.st0{fill:#595A5C;}
	.st1{fill:#CB5E5F;}
</style>
<g>
	<g>
		<path class="st0" d="M60.9,72.3h-6.5V70h6.5c2.4,0,4.2-0.6,5.4-1.9c1.8-1.8,1.8-4.5,1.8-4.5l0-3.3c0-6.1-3.7-10.6-10-12
			c-0.9-0.2-1.5-0.3-2.2-0.4l0.4-2.3c0.7,0.1,1.4,0.3,2.3,0.5c7.3,1.6,11.8,7.1,11.8,14.3v3.3c0,0.1,0.1,3.6-2.4,6.2
			C66.3,71.5,63.9,72.3,60.9,72.3z"/>
	</g>
	<g>
		<rect x="54.4" y="70" class="st0" width="6.5" height="2.3"/>
	</g>
	<g>
		<path class="st0" d="M85.3,63.2c-6.6,0-11.9-4.6-11.9-10.2c0-2.9,1.5-5.7,4-7.6c0.5-0.4,0.9-0.5,1.3-0.5c1,0,1.6,0.8,1.7,1
			c0,0,1.4,2.2,1.9,2.9c0,0,0.1,0.1,0.2,0.1c0,0,0-0.1,0-0.1c-0.2-0.8-0.9-3.1-0.9-3.1c0-0.1-0.3-1,0.2-1.7c0.2-0.3,0.6-0.8,1.4-0.9
			c0.7-0.1,1.4-0.1,2-0.1c6.6,0,11.9,4.6,11.9,10.2C97.2,58.6,91.9,63.2,85.3,63.2z M78.6,47.3c-1.9,1.5-2.9,3.5-2.9,5.6
			c0,4.4,4.3,7.9,9.6,7.9c5.3,0,9.6-3.5,9.6-7.9c0-4.4-4.3-7.9-9.6-7.9c-0.5,0-0.9,0-1.4,0.1c0.2,0.7,0.6,2.3,0.8,2.9
			c0.4,1.5-0.5,2.5-1.1,2.8L83.5,51c-0.1,0-0.5,0.1-0.9,0.1c-0.8,0-1.6-0.4-2.1-1C80,49.5,79,47.9,78.6,47.3z"/>
	</g>
	<g>
		<path class="st0" d="M93,72.3H77.6c-2.4,0-4.2-1.4-4.2-3.3c0-1.8,1.8-3.3,4.2-3.3H93c2.4,0,4.2,1.4,4.2,3.3
			C97.2,70.9,95.4,72.3,93,72.3z M77.6,68.1c-1.1,0-1.9,0.6-1.9,1c0,0.4,0.8,1,1.9,1H93c1.1,0,1.9-0.6,1.9-1c0-0.4-0.8-1-1.9-1H77.6
			z"/>
	</g>
	<g>
		<polygon class="st0" points="106.5,94.8 0.4,94.8 0.4,92.5 104.2,92.5 104.2,78.4 42.4,78.4 42.4,76.1 106.5,76.1 		"/>
	</g>
	<g>
		<polygon class="st0" points="95,107.1 92.7,107.1 92.7,94.8 89.3,94.8 89.3,107.1 87,107.1 87,92.5 95,92.5 		"/>
	</g>
	<g>
		<path class="st0" d="M0.1,87.8L0,85.5c11.8-0.6,21.4-1.6,28.7-3.1c5.3-1.1,9.6-3.1,12.9-6c1.9-1.6,3.5-3.5,4.9-5.8l1.9,1.2
			c-1.6,2.5-3.3,4.6-5.4,6.3c-3.7,3.2-8.3,5.3-14,6.5C21.7,86.2,12,87.2,0.1,87.8z"/>
	</g>
	<g>
		<path class="st0" d="M49.8,61.5c-0.1-2.9,1.4-6,2.9-9.1c1.1-2.2,2.1-4.4,2.2-5.8c0.1-0.9-0.2-1.3-1-1.6
			c-10.3-4.5-28.1-3.4-39.9-2.6c-1.8,0.1-3.4,0.2-4.9,0.3c-3,0.2-6.4,0.3-9,0.3L0,40.8c2.6-0.1,6-0.2,9-0.3c1.4-0.1,3.1-0.2,4.9-0.3
			c12-0.8,30.2-1.9,41,2.8c1.6,0.7,2.4,2,2.3,3.9c-0.1,1.9-1.2,4.3-2.4,6.7c-1.4,2.8-2.7,5.7-2.7,8L49.8,61.5z"/>
	</g>
	<g>
		<rect x="104.2" y="36.7" class="st0" width="2.3" height="44.2"/>
	</g>
	<g>
		<rect x="0.1" y="60.4" class="st0" width="55.2" height="2.3"/>
	</g>
	<g>
		<rect x="0.1" y="70" class="st0" width="59.6" height="2.3"/>
	</g>
	<g>
		<path class="st0" d="M35.9,24.4c-3.9,0-7.5-1.9-9.7-5.2l1.3-1c1.5,1.5,3.5,2.4,5.7,2.4c4.4,0,7.9-3.6,7.9-7.9
			c0-4.4-3.6-7.9-7.9-7.9c-2.1,0-4.2,0.8-5.7,2.4l-1.3-1c2.2-3.2,5.8-5.2,9.7-5.2c6.5,0,11.7,5.3,11.7,11.7
			C47.7,19.1,42.4,24.4,35.9,24.4z M32.7,22.2c1,0.4,2.2,0.6,3.3,0.6c5.6,0,10.1-4.5,10.1-10.1c0-5.6-4.5-10.1-10.1-10.1
			c-1.1,0-2.2,0.2-3.3,0.6c0.2,0,0.3,0,0.5,0c5.3,0,9.6,4.3,9.6,9.6c0,5.3-4.3,9.6-9.6,9.6C33,22.2,32.8,22.2,32.7,22.2z"/>
	</g>
	<g>
		<g>
			<polygon class="st0" points="14.8,10.8 16.8,9.5 14.4,9.3 13.7,6.9 12.8,9.3 10.2,9.2 12.2,10.7 11.3,13.2 13.5,11.7 15.6,13.4 
							"/>
		</g>
	</g>
	<g>
		<g>
			<polygon class="st0" points="22.8,2.3 23.8,1 22.2,1.4 21.1,0 21.1,1.8 19.4,2.3 21,2.9 21,4.7 22.1,3.2 23.9,3.8 			"/>
		</g>
	</g>
	<g>
		<g>
			<polygon class="st0" points="20.3,16.6 21,15.7 19.9,16.1 19.2,15.1 19.2,16.3 18,16.6 19.2,17 19.1,18.2 19.9,17.3 21.1,17.7 
							"/>
		</g>
	</g>
	<g>
		<g>
			<path class="st1" d="M72.1,37.5l-2-1.1c1.4-2.6,3.8-4.4,6.6-5.2c2.8-0.8,5.8-0.4,8.4,1l-1.1,2c-2-1.1-4.4-1.4-6.6-0.8
				C75.1,34,73.2,35.5,72.1,37.5z"/>
		</g>
		<g>
			<path class="st1" d="M78.9,41.4l-2-1.1c0.4-0.7,1.1-1.3,1.9-1.5c0.8-0.2,1.7-0.1,2.4,0.3l-1.1,2c-0.2-0.1-0.4-0.1-0.6-0.1
				C79.2,41,79,41.2,78.9,41.4z"/>
		</g>
		<g>
			<path class="st1" d="M75.5,39.5l-2-1.1c0.9-1.6,2.4-2.8,4.2-3.3c1.8-0.5,3.7-0.3,5.3,0.6l-1.1,2c-1.1-0.6-2.4-0.8-3.6-0.4
				C77.2,37.6,76.2,38.4,75.5,39.5z"/>
		</g>
	</g>
</g>
</svg>
