<?xml version="1.0" encoding="utf-8"?>
<!-- Generator: Adobe Illustrator 22.1.0, SVG Export Plug-In . SVG Version: 6.00 Build 0)  -->
<svg version="1.1" id="Layer_1" xmlns="http://www.w3.org/2000/svg" xmlns:xlink="http://www.w3.org/1999/xlink" x="0px" y="0px"
	 viewBox="0 0 106.5 107.1" style="enable-background:new 0 0 106.5 107.1;" xml:space="preserve">
<style type="text/css">
	.st0{fill:#231F20;}
</style>
<g>
	<g>
		<path class="st0" d="M34.9,59.2c-0.1,0-0.1,0-0.2,0c-7.3-1.9-13.4-7.1-16.3-14.1c-0.2-0.4,0-0.8,0.4-1c0.4-0.2,0.8,0,1,0.4
			c2.7,6.5,8.4,11.4,15.2,13.2c0.4,0.1,0.7,0.5,0.6,0.9C35.6,59,35.3,59.2,34.9,59.2z"/>
	</g>
	<g>
		<path class="st0" d="M17.5,39.4c-0.4,0-0.7-0.3-0.8-0.7c-0.1-0.9-0.2-1.9-0.2-2.9c0-4.6,1.3-9,3.7-12.8c0.2-0.4,0.7-0.5,1.1-0.2
			c0.4,0.2,0.5,0.7,0.2,1.1c-2.3,3.6-3.5,7.7-3.5,12c0,0.9,0.1,1.8,0.2,2.7C18.4,38.9,18.1,39.3,17.5,39.4
			C17.6,39.4,17.6,39.4,17.5,39.4z"/>
	</g>
	<g>
		<path class="st0" d="M25.4,18.9c-0.2,0-0.4-0.1-0.6-0.3c-0.3-0.3-0.2-0.8,0.1-1.1c2.2-1.9,4.7-3.4,7.4-4.4c0.4-0.2,0.8,0.1,1,0.5
			c0.1,0.4-0.1,0.8-0.5,1c-2.5,0.9-4.9,2.3-6.9,4.1C25.8,18.9,25.6,18.9,25.4,18.9z"/>
	</g>
	<g>
		<path class="st0" d="M40.8,56.4c-8,0-15.3-4.7-18.7-11.9c-0.8-1.8-1.4-3.6-1.7-5.5c-0.2-1.1-0.3-2.2-0.3-3.2
			c0-3.8,1.1-7.6,3.1-10.8c1.4-2.2,3.1-4.1,5.1-5.6C30,18,31.9,17,34,16.2c2.2-0.8,4.4-1.1,6.8-1.1c11.4,0,20.7,9.3,20.7,20.7
			C61.4,47.2,52.1,56.4,40.8,56.4z M40.8,16.7c-2.1,0-4.3,0.4-6.3,1c-1.9,0.7-3.7,1.6-5.3,2.8c-1.9,1.4-3.5,3.2-4.7,5.2
			c-1.9,3-2.8,6.5-2.8,10c0,1,0.1,2,0.2,3c0.3,1.8,0.8,3.5,1.6,5.1c3.1,6.7,9.9,11,17.3,11c10.5,0,19.1-8.6,19.1-19.1
			C59.9,25.2,51.3,16.7,40.8,16.7z"/>
	</g>
	<g>
		<path class="st0" d="M40.8,51.7c-1.2,0-2.1-0.7-3-1.3c-0.5-0.4-1-0.8-1.5-0.9c-0.5-0.2-1.1-0.2-1.8-0.2c-1,0-2.2,0-3.1-0.6
			c-0.9-0.7-1.3-1.8-1.6-2.8c-0.2-0.6-0.4-1.2-0.7-1.7c-0.3-0.4-0.8-0.8-1.3-1.2c-0.9-0.6-1.8-1.3-2.2-2.4c-0.3-1,0-2.1,0.4-3.1
			c0.2-0.7,0.4-1.3,0.4-1.8S26.2,34.6,26,34c-0.3-1-0.7-2.1-0.4-3.1c0.4-1.1,1.3-1.8,2.2-2.4c0.5-0.4,1.1-0.7,1.3-1.2
			c0.3-0.4,0.5-1,0.7-1.7c0.3-1,0.7-2.1,1.6-2.8c0.9-0.7,2.1-0.6,3.1-0.6c0.7,0,1.3,0,1.8-0.2c0.5-0.2,1-0.5,1.5-0.9
			c0.8-0.6,1.8-1.3,3-1.3c1.2,0,2.1,0.7,3,1.3c0.5,0.4,1,0.8,1.5,0.9c0.5,0.2,1.1,0.2,1.8,0.2c1,0,2.2,0,3.1,0.6
			c0.9,0.7,1.3,1.8,1.6,2.8c0.2,0.6,0.4,1.2,0.7,1.7c0.3,0.4,0.8,0.8,1.3,1.2c0.9,0.6,1.8,1.3,2.2,2.4c0.3,1,0,2.1-0.4,3.1
			c-0.2,0.7-0.4,1.3-0.4,1.8c0,0.5,0.2,1.2,0.4,1.8c0.3,1,0.7,2.1,0.4,3.1c-0.4,1.1-1.3,1.8-2.2,2.4c-0.5,0.4-1.1,0.7-1.3,1.2
			c-0.3,0.4-0.5,1-0.7,1.7c-0.3,1-0.7,2.1-1.6,2.8c-0.9,0.7-2.1,0.6-3.1,0.6c-0.7,0-1.3,0-1.8,0.2c-0.5,0.2-1,0.5-1.5,0.9
			C42.9,51,41.9,51.7,40.8,51.7z M34.8,47.7c0.7,0,1.3,0,2,0.2c0.7,0.2,1.3,0.7,1.9,1.1c0.7,0.5,1.4,1,2,1c0.6,0,1.3-0.5,2-1
			c0.6-0.4,1.2-0.9,1.9-1.1c0.7-0.2,1.5-0.2,2.3-0.2c0.9,0,1.7,0,2.2-0.3c0.5-0.4,0.7-1.2,1-2c0.2-0.7,0.5-1.5,0.9-2.1
			c0.4-0.6,1.1-1.1,1.7-1.5c0.7-0.5,1.4-1,1.6-1.6c0.2-0.6-0.1-1.3-0.3-2.1c-0.2-0.7-0.5-1.5-0.5-2.3s0.3-1.6,0.5-2.3
			c0.3-0.8,0.5-1.6,0.3-2.1c-0.2-0.6-0.9-1.1-1.6-1.6c-0.6-0.4-1.3-0.9-1.7-1.5c-0.5-0.6-0.7-1.4-0.9-2.1c-0.3-0.8-0.5-1.6-1-2
			c-0.5-0.4-1.3-0.4-2.2-0.3c-0.8,0-1.6,0-2.3-0.2c-0.7-0.2-1.3-0.7-1.9-1.1c-0.7-0.5-1.4-1-2-1c-0.6,0-1.3,0.5-2,1
			c-0.6,0.4-1.2,0.9-1.9,1.1c-0.7,0.2-1.5,0.2-2.3,0.2c-0.9,0-1.7,0-2.2,0.3c-0.5,0.4-0.7,1.2-1,2c-0.2,0.7-0.5,1.5-0.9,2.1
			c-0.4,0.6-1.1,1.1-1.7,1.5c-0.7,0.5-1.4,1-1.6,1.6c-0.2,0.6,0.1,1.3,0.3,2.1c0.2,0.7,0.5,1.5,0.5,2.3s-0.3,1.6-0.5,2.3
			c-0.3,0.8-0.5,1.6-0.3,2.1c0.2,0.6,0.9,1.1,1.6,1.6c0.6,0.4,1.3,0.9,1.7,1.5c0.5,0.6,0.7,1.4,0.9,2.1c0.3,0.8,0.5,1.6,1,2
			c0.5,0.4,1.3,0.3,2.2,0.3C34.6,47.7,34.7,47.7,34.8,47.7z"/>
	</g>
	<g>
		<path class="st0" d="M51.4,85.3c-0.2,0-0.5-0.1-0.6-0.3c-2.6-3.3-4.3-7.1-4.9-11.2c-0.1-0.4,0.2-0.8,0.6-0.9
			c0.4-0.1,0.8,0.2,0.9,0.6C48,77.4,49.6,81,52,84.1c0.3,0.3,0.2,0.8-0.1,1.1C51.8,85.3,51.6,85.3,51.4,85.3z"/>
	</g>
	<g>
		<path class="st0" d="M69.5,94.1c-5.8,0-11.3-2.1-15.7-5.9c-0.3-0.3-0.4-0.8-0.1-1.1c0.3-0.3,0.8-0.4,1.1-0.1
			c4.1,3.5,9.3,5.5,14.7,5.5c0.8,0,1.6,0,2.5-0.1c0.4,0,0.8,0.3,0.9,0.7c0,0.4-0.3,0.8-0.7,0.9C71.3,94,70.4,94.1,69.5,94.1z"/>
	</g>
	<g>
		<path class="st0" d="M46.4,69.1C46.4,69.1,46.4,69.1,46.4,69.1c-0.5,0-0.8-0.4-0.8-0.8c0.2-2.2,0.7-4.4,1.4-6.5
			c0.2-0.4,0.6-0.6,1-0.5c0.4,0.2,0.6,0.6,0.5,1c-0.7,1.9-1.2,4-1.4,6.1C47.2,68.8,46.8,69.1,46.4,69.1z"/>
	</g>
	<g>
		<path class="st0" d="M69.5,90.6c-11.3,0-20.4-9.2-20.4-20.4c0-11.3,9.2-20.4,20.4-20.4c11.3,0,20.4,9.2,20.4,20.4
			C89.9,81.4,80.8,90.6,69.5,90.6z M69.5,51.3c-10.4,0-18.9,8.5-18.9,18.9S59.1,89,69.5,89s18.9-8.5,18.9-18.9S79.9,51.3,69.5,51.3z
			"/>
	</g>
	<g>
		<path class="st0" d="M69.5,86.2c-1.7,0-2.1-2.6-2.6-5.7c-0.2-1.4-0.6-3.8-1-4.1c-0.5-0.2-2.9,0.7-4.2,1.2c-2.8,1.1-5.2,2-6.1,0.6
			c-0.8-1.4,1.1-2.9,3.4-4.9c1.1-0.9,3.2-2.6,3.2-3.2c0-0.6-2.1-2.3-3.2-3.2c-2.4-1.9-4.3-3.5-3.4-4.9c0.8-1.4,3.3-0.5,6.1,0.6
			c1.3,0.5,3.7,1.4,4.2,1.2c0.4-0.3,0.8-2.7,1-4.1c0.5-3,0.9-5.7,2.6-5.7c1.7,0,2.1,2.6,2.6,5.7c0.2,1.4,0.6,3.8,1,4.1
			c0.5,0.2,2.9-0.7,4.2-1.2c2.8-1.1,5.2-2,6.1-0.6c0.8,1.4-1.1,2.9-3.4,4.9c-1.1,0.9-3.2,2.6-3.2,3.2c0,0.6,2.1,2.3,3.2,3.2
			c2.4,1.9,4.3,3.5,3.4,4.9c-0.8,1.4-3.3,0.5-6.1-0.6c-1.3-0.5-3.7-1.4-4.2-1.2c-0.4,0.3-0.8,2.7-1,4.1
			C71.7,83.6,71.3,86.2,69.5,86.2z M65.7,74.8c0.4,0,0.7,0.1,1,0.2c1,0.6,1.3,2.4,1.8,5.2c0.2,1.4,0.6,3.9,1.1,4.3
			c0.5-0.5,0.9-3,1.1-4.3c0.4-2.8,0.8-4.6,1.8-5.2c1-0.6,2.8,0,5.5,1.1c1.2,0.5,3.4,1.3,4.1,1.2c-0.3-0.6-2-2-3-2.9
			c-2.3-1.9-3.8-3.1-3.8-4.4c0-1.2,1.4-2.5,3.8-4.4c1-0.8,2.7-2.2,3-2.9c-0.7-0.1-2.9,0.7-4.1,1.2c-2.8,1.1-4.5,1.7-5.5,1.1
			c-1-0.6-1.3-2.4-1.8-5.2c-0.2-1.4-0.6-3.9-1.1-4.3c-0.5,0.5-0.9,3-1.1,4.3c-0.4,2.8-0.8,4.6-1.8,5.2c-1,0.6-2.8,0-5.5-1.1
			c-1.2-0.5-3.4-1.3-4.1-1.2c0.3,0.6,2,2,3,2.9c2.3,1.9,3.8,3.1,3.8,4.4c0,1.2-1.4,2.5-3.8,4.4c-1,0.8-2.7,2.2-3,2.9
			c0.7,0.1,2.9-0.7,4.1-1.2C63.2,75.4,64.6,74.8,65.7,74.8z"/>
	</g>
	<g>
		<path class="st0" d="M82.7,22c-1.7,0-3.1-1.4-3.1-3.1c0-1.7,1.4-3.1,3.1-3.1c1.7,0,3.1,1.4,3.1,3.1C85.8,20.6,84.4,22,82.7,22z
			 M82.7,17.4c-0.8,0-1.5,0.7-1.5,1.5c0,0.8,0.7,1.5,1.5,1.5c0.8,0,1.5-0.7,1.5-1.5C84.2,18.1,83.6,17.4,82.7,17.4z"/>
	</g>
	<g>
		<path class="st0" d="M72.1,41.2c-2.3,0-4.2-1.9-4.2-4.2c0-2.3,1.9-4.2,4.2-4.2c2.3,0,4.2,1.9,4.2,4.2
			C76.3,39.3,74.4,41.2,72.1,41.2z M72.1,34.3c-1.5,0-2.7,1.2-2.7,2.7c0,1.5,1.2,2.7,2.7,2.7c1.5,0,2.7-1.2,2.7-2.7
			C74.8,35.5,73.6,34.3,72.1,34.3z"/>
	</g>
	<g>
		<path class="st0" d="M28.9,84.9c-2.3,0-4.2-1.9-4.2-4.2c0-2.3,1.9-4.2,4.2-4.2c2.3,0,4.2,1.9,4.2,4.2C33.1,83,31.2,84.9,28.9,84.9
			z M28.9,77.9c-1.5,0-2.7,1.2-2.7,2.7c0,1.5,1.2,2.7,2.7,2.7c1.5,0,2.7-1.2,2.7-2.7C31.6,79.1,30.3,77.9,28.9,77.9z"/>
	</g>
	<g>
		<path class="st0" d="M69.5,18.9h-3.3c-0.4,0-0.8-0.3-0.8-0.8s0.3-0.8,0.8-0.8h3.3c0.4,0,0.8,0.3,0.8,0.8S69.9,18.9,69.5,18.9z"/>
	</g>
	<g>
		<path class="st0" d="M89.2,37.8h-3.8c-0.4,0-0.8-0.3-0.8-0.8s0.3-0.8,0.8-0.8h3.8c0.4,0,0.8,0.3,0.8,0.8S89.6,37.8,89.2,37.8z"/>
	</g>
	<g>
		<path class="st0" d="M23.6,66.2h-4.4c-0.4,0-0.8-0.3-0.8-0.8s0.3-0.8,0.8-0.8h4.4c0.4,0,0.8,0.3,0.8,0.8S24,66.2,23.6,66.2z"/>
	</g>
	<g>
		<path class="st0" d="M21.4,91.2h-4c-0.4,0-0.8-0.3-0.8-0.8s0.3-0.8,0.8-0.8h4c0.4,0,0.8,0.3,0.8,0.8S21.8,91.2,21.4,91.2z"/>
	</g>
	<g>
		<path class="st0" d="M39.1,73.2h-1.7c-0.4,0-0.8-0.3-0.8-0.8s0.3-0.8,0.8-0.8h1.7c0.4,0,0.8,0.3,0.8,0.8S39.5,73.2,39.1,73.2z"/>
	</g>
	<g>
		<path class="st0" d="M44.7,88.5h-2.3c-0.4,0-0.8-0.3-0.8-0.8s0.3-0.8,0.8-0.8h2.3c0.4,0,0.8,0.3,0.8,0.8S45.1,88.5,44.7,88.5z"/>
	</g>
	<g>
		<path class="st0" d="M85,48.8h-3.4c-0.4,0-0.8-0.3-0.8-0.8s0.3-0.8,0.8-0.8H85c0.4,0,0.8,0.3,0.8,0.8S85.4,48.8,85,48.8z"/>
	</g>
</g>
</svg>
