<?xml version="1.0" encoding="utf-8"?>
<!-- Generator: Adobe Illustrator 22.1.0, SVG Export Plug-In . SVG Version: 6.00 Build 0)  -->
<svg version="1.1" id="Layer_1" xmlns="http://www.w3.org/2000/svg" xmlns:xlink="http://www.w3.org/1999/xlink" x="0px" y="0px"
	 viewBox="0 0 106.5 107.1" style="enable-background:new 0 0 106.5 107.1;" xml:space="preserve">
<style type="text/css">
	.st0{fill:#5A5A5C;}
	.st1{fill:#CC5E5E;}
</style>
<g>
	<g>
		<g>
			<path class="st0" d="M46.9,47.8L46,46.4l6.5-4.1c0.5-0.3,1.3-0.3,1.8,0l6,3.8l-0.9,1.4l-6-3.8c0,0-0.1,0-0.1,0L46.9,47.8z"/>
		</g>
		<g>
			<path class="st0" d="M46.9,42.3l-0.9-1.4l3.4-2.2c0,0,0.1-0.1,0.1-0.2l0-33.4h1.7v33.4c0,0.6-0.4,1.2-0.8,1.5L46.9,42.3z"/>
		</g>
		<g>
			<path class="st0" d="M60.1,42.4l-3.6-2.3c-0.5-0.3-0.8-1-0.8-1.5V5.2h1.7v33.4c0,0,0.1,0.1,0.1,0.2L61,41L60.1,42.4z"/>
		</g>
	</g>
	<g>
		<g>
			<g>
				<path class="st0" d="M99.4,101.9c-1,0-2.2-0.4-3.3-1.2c-11.1-7.4-17.7-9.1-22-10.3c-4.3-1.1-6.7-1.8-8.7-7.2
					c-1.7-4.8-3-16.7-3-28.4c0-8.3,0.7-23.1,5-29.2c1.3-1.8,2.8-2.8,4.6-2.8c0.1,0,0.1,0,0.2,0c5.1,0,10,2.3,14.4,6.9
					c3.9,4,7.4,9.6,10.4,16.7c5.2,12.2,8.6,28,8.6,40.2C105.5,96.5,103.3,101.9,99.4,101.9C99.4,101.9,99.4,101.9,99.4,101.9z
					 M72.1,24.5c-0.1,0-0.1,0-0.2,0c-1.2,0-2.3,0.7-3.2,2.1C65.7,30.8,64,41.1,64,54.9c0,11.5,1.2,23.2,2.9,27.8
					c1.7,4.6,3.3,5,7.6,6.2c4.4,1.2,11.1,2.9,22.5,10.5c0.9,0.6,1.7,0.9,2.4,0.9c0,0,0,0,0,0c2.8,0,4.5-5.2,4.5-13.6
					c0-12.1-3.3-27.6-8.5-39.6c-2.9-6.9-6.3-12.3-10.1-16.2C81.2,26.7,76.7,24.5,72.1,24.5z"/>
			</g>
			<g>
				<path class="st0" d="M7.2,101.9c-4,0-6.1-5.4-6.1-15.2c0-12.3,3.4-28.1,8.6-40.2c3-7.1,6.5-12.7,10.4-16.7
					c4.5-4.6,9.3-6.9,14.4-6.9c0.1,0,0.1,0,0.2,0c1.8,0,3.3,0.9,4.6,2.8c4.3,6.1,4.9,21,5,29.2c0,11.7-1.2,23.7-3,28.4
					c-2,5.4-4.4,6-8.7,7.2c-4.3,1.1-10.9,2.9-22,10.3C9.3,101.5,8.2,101.9,7.2,101.9C7.2,101.9,7.2,101.9,7.2,101.9z M21.2,31
					c-3.7,3.9-7.1,9.3-10.1,16.2C6,59.1,2.7,74.6,2.7,86.7c0,8.4,1.7,13.6,4.5,13.6c0,0,0,0,0,0c0.7,0,1.5-0.3,2.4-0.9
					c11.3-7.5,18-9.3,22.5-10.5c4.3-1.1,5.9-1.6,7.6-6.2c1.7-4.6,2.9-16.3,2.9-27.8c0-13.8-1.7-24.1-4.7-28.3c-1-1.4-2-2.1-3.2-2.1
					c-0.1,0-0.1,0-0.2,0C29.8,24.5,25.3,26.7,21.2,31z"/>
			</g>
			<g>
				<g>
					<path class="st1" d="M70.5,50.3l-1.1-1.2l0.6,0.6l-0.6-0.6c0,0,4.4-4,2.2-7c-2.8-3.9-2.3-6.5-0.1-11.1l1.5,0.7
						C71,36,70.7,37.9,73,41.1C76,45.3,70.7,50.1,70.5,50.3z"/>
				</g>
				<g>
					<path class="st1" d="M73.3,43.7l-0.7-1.5L73,43l-0.4-0.7c0.9-0.4,3.3-2,3.5-3.8c0.1-0.7,0.1-1.1,0.2-1.5
						c0.1-1.2,0.1-1.4,0.7-3.1c0.5-1.6,0.3-2.7,0.2-2.9l1.5-0.7c0.3,0.8,0.5,2.3-0.2,4.1C78,36,78,36.1,77.9,37.1
						c0,0.4-0.1,0.8-0.2,1.5C77.4,41.7,73.5,43.7,73.3,43.7z"/>
				</g>
				<g>
					<path class="st1" d="M78.5,50.1c-3.6,0-6.8-1.9-7-2l0.8-1.4c0,0,4.8,2.8,8.6,1.3c1.7-0.7,1.9-1,2.2-1.6c0.5-1,1.2-1.9,4.1-3.6
						l0.8,1.4c-2.7,1.5-3.1,2.3-3.5,2.9c-0.5,0.9-0.9,1.5-3.1,2.3C80.5,49.9,79.5,50.1,78.5,50.1z"/>
				</g>
				<g>
					<path class="st1" d="M83.8,87.8c-0.5-1.2-1.6-2.2-2.8-3.2c-2.7-2.3-6.1-5.2-3-13.4c4.1-10.7-11.2-23-11.4-23.1l1-1.3
						c0.2,0.1,4.1,3.3,7.6,7.9c2.1,2.7,3.5,5.4,4.3,8c1,3.3,1,6.3,0,9.1c-2.7,7.1-0.1,9.2,2.6,11.5c1.3,1.1,2.6,2.2,3.2,3.8
						L83.8,87.8z"/>
				</g>
				<g>
					<path class="st1" d="M92.4,57.8c-10-0.4-18.1-8.4-18.5-8.7l1.2-1.2l-0.6,0.6l0.6-0.6c0.1,0.1,8,7.9,17.4,8.2L92.4,57.8z"/>
				</g>
				<g>
					<path class="st1" d="M91.4,77.7c-0.2-0.7-3.2-4.4-5.6-6.4l0,0c-0.7-0.6-1.4-1.1-2.1-1.5c-3.7-1.9-5.5-6.2-5.6-6.4l1.5-0.6
						c0,0,1.6,4,4.8,5.6c0.9,0.4,1.7,1,2.5,1.7c2.3,1.9,5.9,6.2,6.1,7.2L91.4,77.7C91.3,77.7,91.4,77.7,91.4,77.7z"/>
				</g>
				<g>
					<path class="st1" d="M76.5,41.2l-0.8-1.5c0.1,0,1.7-0.9,3.4-0.8c1.1,0,1.4-0.2,2.1-1l0,0c2.4-2.5,3.2-2.7,3.5-2.8l0.3,1.6
						c-0.2,0.1-1.1,0.7-2.6,2.3l0,0c-0.8,0.8-1.5,1.5-3.3,1.5C77.8,40.5,76.5,41.2,76.5,41.2z"/>
				</g>
				<g>
					<path class="st1" d="M96.8,71.8c-2.8-1.3-5.5-2.3-11.5-1.3L85,68.9c5.9-1,8.9-0.3,12.5,1.4L96.8,71.8z"/>
				</g>
				<g>
					<path class="st1" d="M70.1,66.8c0-0.1-0.8-3.3,1.1-6.7c0.4-0.7,0.8-1.3,1-1.7c0.9-1.5,1.1-1.8,0.6-4.1l1.6-0.4
						c0.6,2.9,0.3,3.6-0.8,5.4c-0.3,0.5-0.6,1-1,1.7c-1.6,2.8-0.9,5.5-0.9,5.5L70.1,66.8z"/>
				</g>
				<g>
					<path class="st1" d="M96.4,91.3c-1.9-3.5-3.6-5.5-5.7-6.9c-0.9-0.6-2.5-1.2-4-1.9c-0.7-0.3-1.4-0.6-2.1-0.9
						c-0.9-0.4-1.8-0.3-2.8-0.3c-1.5,0.1-3.1,0.2-4.4-1.3l1.2-1.1c0.7,0.8,1.6,0.8,3.1,0.8c1.1-0.1,2.4-0.1,3.6,0.4
						c0.7,0.3,1.4,0.6,2.1,0.9c1.5,0.7,3.1,1.3,4.2,2c2.4,1.5,4.3,3.7,6.3,7.5L96.4,91.3z"/>
				</g>
				<g>
					<path class="st1" d="M86.9,62.3c-3.4-1.7-3.5-5.5-3.1-7.3l1.6,0.4l-0.8-0.2l0.8,0.2c0,0.2-0.9,4,2.2,5.5L86.9,62.3z"/>
				</g>
				<g>
					<path class="st1" d="M93.1,86l-0.3-1.6c1.3-0.2,5-1,6.2-1.6l0.8,1.4C98.2,85.1,93.7,85.9,93.1,86z"/>
				</g>
			</g>
		</g>
	</g>
	<g>
		<g>
			<g>
				<g>
					<path class="st1" d="M36.1,50.3c-0.2-0.2-5.5-5-2.5-9.2c2.3-3.2,2-5.1-0.1-9.4l1.5-0.7c2.2,4.6,2.7,7.2-0.1,11.1
						c-2.1,3,2.2,6.9,2.2,7L36.1,50.3z"/>
				</g>
				<g>
					<path class="st1" d="M33.3,43.7c-0.2-0.1-4-2-4.4-5.1c-0.1-0.7-0.1-1.1-0.2-1.5c-0.1-1-0.1-1.2-0.6-2.7
						c-0.6-1.9-0.5-3.4-0.2-4.1l1.5,0.7c-0.1,0.3-0.3,1.4,0.2,2.9c0.6,1.7,0.6,1.9,0.7,3.1c0,0.4,0.1,0.8,0.2,1.5
						c0.2,1.8,2.6,3.3,3.5,3.8L33.3,43.7z"/>
				</g>
				<g>
					<path class="st1" d="M28.2,50.1c-1,0-2.1-0.2-3.1-0.5c-2.2-0.8-2.6-1.4-3.1-2.3c-0.3-0.6-0.8-1.4-3.5-2.9l0.8-1.4
						c2.9,1.6,3.6,2.6,4.1,3.6c0.3,0.6,0.5,0.9,2.2,1.6c3.8,1.5,8.6-1.3,8.6-1.3l0.8,1.4C35,48.2,31.7,50.1,28.2,50.1z"/>
				</g>
				<g>
					<path class="st1" d="M22.8,87.8l-1.5-0.6c0.6-1.6,2-2.8,3.2-3.8c2.7-2.3,5.2-4.4,2.6-11.5c-1.1-2.8-1.1-5.9,0-9.1
						c0.8-2.6,2.3-5.2,4.3-8c3.5-4.6,7.4-7.7,7.6-7.9l1,1.3c-0.2,0.1-15.4,12.4-11.4,23.1c3.1,8.2-0.3,11.1-3,13.4
						C24.4,85.7,23.3,86.6,22.8,87.8z"/>
				</g>
				<g>
					<path class="st1" d="M14.2,57.8l-0.1-1.7c9.4-0.3,17.3-8.2,17.4-8.2l1.2,1.2C32.4,49.4,24.3,57.5,14.2,57.8z"/>
				</g>
				<g>
					<path class="st1" d="M15.3,77.7C15.3,77.7,15.3,77.7,15.3,77.7l-1.6-0.4c0.2-1.1,3.8-5.3,6.1-7.2c0.8-0.7,1.6-1.3,2.5-1.7
						c3.2-1.6,4.8-5.5,4.8-5.6l1.5,0.6c-0.1,0.2-1.9,4.6-5.6,6.4c-0.7,0.4-1.4,0.9-2.1,1.5l0,0C18.5,73.3,15.5,77,15.3,77.7z"/>
				</g>
				<g>
					<path class="st1" d="M30.2,41.2c0,0-1.3-0.7-2.6-0.6c-1.9,0.1-2.6-0.7-3.3-1.5l0,0c-1.5-1.6-2.4-2.2-2.6-2.3l0.4-1.6
						c0.3,0.1,1.1,0.2,3.5,2.8l0,0c0.7,0.7,0.9,1,2.1,1c1.7-0.1,3.4,0.8,3.4,0.8L30.2,41.2l0.4-0.7L30.2,41.2z"/>
				</g>
				<g>
					<path class="st1" d="M9.9,71.8l-0.7-1.5c3.6-1.7,6.5-2.4,12.5-1.4l-0.3,1.6C15.4,69.6,12.7,70.5,9.9,71.8z"/>
				</g>
				<g>
					<path class="st1" d="M36.5,66.8l-1.6-0.4c0,0,0.6-2.7-0.9-5.5c-0.4-0.7-0.7-1.2-1-1.7c-1.1-1.8-1.4-2.5-0.8-5.4l1.6,0.4
						c-0.5,2.4-0.4,2.7,0.6,4.1c0.3,0.5,0.6,1,1,1.7C37.3,63.5,36.6,66.7,36.5,66.8z"/>
				</g>
				<g>
					<path class="st1" d="M10.3,91.3l-1.5-0.8c2-3.8,3.9-6,6.3-7.5c1-0.7,2.6-1.3,4.2-2c0.7-0.3,1.4-0.6,2.1-0.9
						c1.3-0.6,2.5-0.5,3.6-0.4c1.5,0.1,2.4,0.1,3.1-0.8l1.2,1.1c-1.3,1.5-3,1.4-4.4,1.3c-1-0.1-2-0.1-2.8,0.3
						c-0.7,0.3-1.4,0.6-2.1,0.9c-1.5,0.6-3,1.3-4,1.9C13.8,85.8,12.2,87.8,10.3,91.3z"/>
				</g>
				<g>
					<path class="st1" d="M19.8,62.3L19,60.8c3.1-1.5,2.2-5.5,2.2-5.5l1.6-0.4C23.3,56.8,23.2,60.6,19.8,62.3z"/>
				</g>
				<g>
					<path class="st1" d="M13.5,86c-0.5-0.1-5.1-0.9-6.7-1.8l0.8-1.4c1.2,0.6,4.8,1.4,6.2,1.6L13.5,86z"/>
				</g>
			</g>
		</g>
	</g>
</g>
</svg>
