<?xml version="1.0" encoding="utf-8"?>
<!-- Generator: Adobe Illustrator 22.1.0, SVG Export Plug-In . SVG Version: 6.00 Build 0)  -->
<svg version="1.1" xmlns="http://www.w3.org/2000/svg" xmlns:xlink="http://www.w3.org/1999/xlink" x="0px" y="0px"
	 viewBox="0 0 106.5 107.1" style="enable-background:new 0 0 106.5 107.1;" xml:space="preserve">
<style type="text/css">
	.st0{fill:#595A5C;}
	.st1{display:none;}
	.st2{display:inline;}
	.st3{fill:#E7F5F6;}
	.st4{fill:#B9E3E6;}
	.st5{fill:#FFEFD5;}
	.st6{fill:#FFFFFF;}
	.st7{fill:#4B4B4B;}
</style>
<g id="Layer_1">
	<g>
		<g>
			<path class="st0" d="M45.8,90.5H0.2v-2.1h45.7c3.3,0,5.9-0.9,7.6-2.7c2.6-2.6,2.5-6.4,2.5-6.5l0-4.5c0-8.4-5.3-14.7-13.9-16.7
				c-0.3-0.1-0.6-0.1-0.9-0.2c-0.8-0.2-1.4-0.3-2-0.4c-9.2-0.7-38.7,0-39,0l-0.1-2.1c1.2,0,29.9-0.8,39.2,0c0.8,0.1,1.5,0.2,2.3,0.4
				c0.3,0.1,0.5,0.1,0.8,0.2c9.6,2.2,15.6,9.4,15.6,18.8v4.5c0,0.2,0.1,4.7-3.1,8C52.8,89.4,49.8,90.5,45.8,90.5z"/>
		</g>
		<g>
			<g>
				<g>
					<path class="st0" d="M77.1,62C77.1,62,77.1,62,77.1,62c-2.3,0-4.3-0.1-6-0.3c-3.4-0.4-5.6-1.2-6.9-2.4
						c-0.7-0.7-1.1-1.6-1.1-2.6c0-1.6,0.9-3.1,2.6-4.4L67,54c-0.8,0.6-1.8,1.6-1.8,2.7c0,0.4,0.2,0.7,0.5,1.1
						c0.6,0.6,2.1,1.4,5.7,1.9c1.6,0.2,3.5,0.3,5.7,0.3c2.1,0,7-1.4,7.6-3.1c0.1-0.2,0.1-0.5,0-0.7c-1.3-3.2-6.3-4.9-8.6-4.9v-2.1
						c2.9,0,8.9,2.1,10.6,6.2c0.3,0.8,0.3,1.6,0.1,2.3C85.5,60.9,78.7,62,77.1,62z"/>
				</g>
				<g>
					<path class="st0" d="M84.4,88.8c-4.1,0-9-1-14.2-5.6c-4.2-3.3-9.4-3.8-13.1-3.7L57,77.5c4.1-0.2,9.9,0.4,14.6,4.1l0,0
						c6.5,5.8,12.4,5.2,17,4.8l0.6-0.1c10.7-1,15.5-6,14.9-15.6c-0.3-5.2-3-11.4-9.6-13.3c-1-0.3-3.9-0.9-5.2-0.9c0,0,0,0,0,0
						c-0.8,0-0.9,0.2-1.3,0.6c-0.3,0.3-0.6,0.6-1.1,1l-0.1,0c-0.7,0.4-1.5-0.1-1.7-0.2l0.8-1.3l-0.2-0.3c0.3-0.2,0.5-0.4,0.7-0.6
						c0.5-0.6,1.2-1.3,2.9-1.3c0,0,0,0,0,0c1.7,0,5.3,0.9,5.7,1l0,0c7.8,2.2,10.9,9.3,11.2,15.2c0.3,5.6-1.1,9.9-4.1,12.9
						c-2.8,2.8-7,4.4-12.8,4.9l-0.6,0.1C87.5,88.7,86,88.8,84.4,88.8z M86.2,56.3c-0.1,0-0.2,0-0.4,0.1l0.2,0.3L86.2,56.3
						C86.3,56.3,86.2,56.3,86.2,56.3z"/>
				</g>
				<g>
					<path class="st0" d="M59.1,65.3h-5.9v-2.1h5.9c0.8,0,2.7-0.3,3.8-1.5c0.7-0.7,1-1.5,1-2.6c0-0.2,0-0.5,0-0.7l2.1,0.2
						c0,0.1,0,0.3,0,0.5c0,1.7-0.5,3.1-1.6,4.1C62.8,64.8,60.3,65.3,59.1,65.3z"/>
				</g>
				<g>
					<path class="st0" d="M84.6,64.3c-1-1.7-1.3-3.1-0.8-4.2c0.3-0.8,1-1.2,1.5-1.3l0.5,2.1c0,0,0,0,0.1,0c0,0-0.1,0.1-0.1,0.1
						c0,0.1-0.2,0.7,0.7,2.2L84.6,64.3z"/>
				</g>
				<g>
					<path class="st0" d="M77.2,54.2H57.6v-5.1h19.6V54.2z M59.7,52H75v-0.8H59.7V52z"/>
				</g>
				<g>
					<path class="st0" d="M91.8,87.2c-0.6-1.9-1.3-3.7-2.1-5.5l1.9-0.9c0.9,1.8,1.6,3.8,2.2,5.7L91.8,87.2z"/>
				</g>
				<g>
					<path class="st0" d="M85.5,75.7c-6.3-7.2-9.3-14-9.4-14.3l1.9-0.9c0,0.1,3.1,6.8,9.1,13.7L85.5,75.7z"/>
				</g>
				<g>
					<path class="st0" d="M84.2,83.6c-2.5,0-4.8-1.5-6-2.9c-0.8-1-1.1-2.1-0.9-3h0c0.1-0.4,0.6-1.7,2.9-1.7l0,2.1
						c-0.5,0-0.7,0.1-0.8,0.2c0,0.2,0.1,0.6,0.5,1.2c0.8,1,2.5,2.1,4.3,2.1c0,0,0,0,0,0c2.4,0,4.9-1.1,5-3.1c0-0.2-0.1-0.7-0.3-1
						c-0.1-0.1-0.2-0.2-0.5-0.2c0,0,0,0,0,0l-0.1,0c0,0-0.6,0-1.1,0L87,75.2c0.6-0.1,1.2,0,1.4,0c0.8,0,1.5,0.3,2,0.8
						c0.9,1,0.9,2.4,0.9,2.5C91.3,81.5,88.3,83.6,84.2,83.6C84.2,83.6,84.2,83.6,84.2,83.6z M78.3,77.9l1,0.2c0,0,0,0,0,0
						c0,0,0-0.1,0-0.1L78.3,77.9z"/>
				</g>
			</g>
			<g>
				<rect x="72.1" y="50.1" class="st0" width="2.1" height="3"/>
			</g>
			<g>
				<rect x="60.3" y="50.1" class="st0" width="2.1" height="3"/>
			</g>
			<g>
				<rect x="62" y="50.1" class="st0" width="2.1" height="3"/>
			</g>
			<g>
				<rect x="53.3" y="49.9" class="st0" width="5.4" height="2.1"/>
			</g>
			<g>
				<rect x="53.3" y="51.2" class="st0" width="5.4" height="2.1"/>
			</g>
		</g>
		<g>
			<rect x="0.2" y="75.3" class="st0" width="36.1" height="2.1"/>
		</g>
		<g>
			<g>
				<path class="st0" d="M38,37.1h-28c-2.4,0-4.4-2-4.4-4.4V21c0-2.4,2-4.4,4.4-4.4h28c2.4,0,4.4,2,4.4,4.4v11.6
					C42.4,35.1,40.4,37.1,38,37.1z M9.9,18.8c-1.3,0-2.3,1-2.3,2.3v11.6c0,1.3,1,2.3,2.3,2.3h28c1.3,0,2.3-1,2.3-2.3V21
					c0-1.3-1-2.3-2.3-2.3H9.9z"/>
			</g>
			<g>
				<path class="st0" d="M25.2,27.9H11.2v-7.1h14.1V27.9z M13.3,25.8h9.8v-2.9h-9.8V25.8z"/>
			</g>
			<g>
				<path class="st0" d="M32.7,27.2c-1.6,0-2.8-1.3-2.8-2.8s1.3-2.8,2.8-2.8c1.6,0,2.8,1.3,2.8,2.8S34.3,27.2,32.7,27.2z M32.7,23.6
					c-0.4,0-0.7,0.3-0.7,0.7c0,0.4,0.3,0.7,0.7,0.7c0.4,0,0.7-0.3,0.7-0.7C33.4,24,33.1,23.6,32.7,23.6z"/>
			</g>
			<g>
				<rect x="11.3" y="29.8" class="st0" width="2.4" height="2.1"/>
			</g>
			<g>
				<rect x="15.1" y="29.8" class="st0" width="2.4" height="2.1"/>
			</g>
			<g>
				<rect x="18.9" y="29.8" class="st0" width="2.4" height="2.1"/>
			</g>
			<g>
				<rect x="22.8" y="29.8" class="st0" width="2.4" height="2.1"/>
			</g>
		</g>
		<g>
			<path class="st0" d="M53.3,52.7H20.6c-2.7,0-4.8-2.2-4.8-4.8v-0.6c0-2.7,2.2-4.8,4.8-4.8h23.8c1.5,0,2.7-1.2,2.7-2.7v-5.1
				c0-1.5-0.9-2.7-2-2.7H42v-2.1h3.1c2.3,0,4.2,2.2,4.2,4.8v5.1c0,2.7-2.2,4.8-4.8,4.8H20.6c-1.5,0-2.7,1.2-2.7,2.7v0.6
				c0,1.5,1.2,2.7,2.7,2.7h32.7V52.7z"/>
		</g>
	</g>
</g>
<g id="_x5F_" class="st1">
	<g id="Icon_4" class="st2">
		<path id="BG_7_" class="st3" d="M88.2,70.5h-69c-3.9,0-7,3.2-7,7s3.2,7,7,7h69c3.9,0,7-3.2,7-7S92.1,70.5,88.2,70.5z"/>
		<g id="Colors_3_">
			<path class="st4" d="M22.2,63.5h2.1v21.1h-2.1V63.5z M82.8,84.6h2.1V63.5h-2.1V84.6z M19.8,52.6c-0.6,0-1.1,0.5-1.1,1.1
				s0.5,1.1,1.1,1.1h37.3c0.1-0.3,0.2-0.5,0.3-0.8l0.9-1.3h-1.4H19.8z M87.4,52.6H67.6h-1.4l-1.4,2.1h1.4h21.1
				c0.6,0,1.1-0.5,1.1-1.1S87.9,52.6,87.4,52.6z M37.7,83.2c0-1.1,0.4-2.1,2.9-2.1c1.8,0,2.5,0.5,2.8,1.1l0.7-24.1
				c0-0.6,0.6-0.7,0.6,0L45.4,82c0.4-0.5,1.1-0.9,2.7-0.9c2.6,0,3,1,3,2l0-27l-13.4,0L37.7,83.2z M33.9,36.8l3.3,3.3
				c0.3,2.7,0.5,3.8,0.5,11.1l13.4,0c0.1-6.2,0.5-8.9,0.8-11.4l3.4-3.4c-1.6-1.6-3.4-3.1-6-3.1h-1.3l-3.7,2.5l-3.7-2.5h-1.3
				C36.9,33.2,34.6,34.8,33.9,36.8z"/>
			<path class="st5" d="M61.4,50L60,42.9c-0.6-3,1.4-6,4.4-6.6c1.5-0.3,3,0.7,3.3,2.2l2.5,12.7h-4.5l0,0c1.5-2.2,2-4.8,1.5-7.4
				l-4.1,0.8c0.3,1.5,0,3-0.8,4.2L61.4,50L61.4,50z M69.8,57.1c0.1-0.3,0.2-0.7,0.3-1h-7.6l-0.1,0.1c-0.2,0.3-0.5,0.6-0.8,0.7l0,0.1
				l-1.1,5.6c-0.5,2.7-0.5,5.5,0,8.2l1.9,9.8h3.9L65,68.6l0.3-0.7L71,78.6l3.7-1.5l-5-12V57.1z"/>
			<path class="st6" d="M60.2,35.8c-2.8,0-4.2-3.3-4.2-5.6c0-1.7,0.4-5.6,4.2-5.6c3.8,0,4.2,3.9,4.2,5.6
				C64.5,32.5,63,35.8,60.2,35.8z M63.1,44.6c0.3,1.5,0,3-0.8,4.2l-3.4,5.1c-0.6,1-0.4,2.3,0.6,2.9c1,0.6,2.3,0.4,2.9-0.6l3.4-5.1
				c1.5-2.2,2-4.8,1.5-7.4L63.1,44.6z M57.8,83.5c0,0.4,0.3,0.7,0.7,0.7h7c0.4,0,0.7-0.3,0.7-0.7v-2.8h-5.6
				C59.1,80.7,57.8,82,57.8,83.5z M74.7,77.1l-5.2,2.2c-1.4,0.6-2.1,2.2-1.5,3.7c0.1,0.4,0.6,0.5,0.9,0.4l6.5-2.7
				c0.4-0.1,0.5-0.6,0.4-0.9L74.7,77.1z M48.6,26.9c0-1.7-0.4-5.6-4.2-5.6s-4.2,3.9-4.2,5.6c0,2.4,1.5,5.6,4.2,5.6
				S48.6,29.2,48.6,26.9z M40.5,81.1c-2.5,0-2.8,1-2.8,2.1v1.1h5.6v-1.1C43.4,82.1,43,81.1,40.5,81.1z M48.3,81.1
				c-2.5,0-2.8,1-2.8,2.1v1.1h5.6v-1.1C51.1,82.1,50.8,81.1,48.3,81.1z M33.9,36.8c-0.3,0.6-0.4,1.4-0.4,2.1v12.3l4.2,0
				c0-7.2-0.1-8.3-0.5-11.1L33.9,36.8z M33.5,58.2c0,1.2,0.9,2.1,2.1,2.1c1.2,0,2.1-0.9,2.1-2.1v-2.1h-4.2V58.2z M58.6,43.1
				c-0.2-1-0.2-2.6,0-3.5c-1.3-1.3-2.7-2.7-3.3-3.3l-3.1,3.1l6.8,6.3L58.6,43.1z"/>
		</g>
		<path id="Line_4_" class="st7" d="M19.8,54.3h37.3V55H23.7v8.1h1.1v21.5H24V63.8h-1.4v20.8h-0.7V63.1H23V55h-3.2
			c-0.8,0-1.4-0.6-1.4-1.4c0-0.8,0.6-1.4,1.4-1.4h38.5v0.7H19.8c-0.4,0-0.7,0.3-0.7,0.7C19.1,54,19.4,54.3,19.8,54.3z M87.4,52.2
			H66.2v0.7h21.1c0.4,0,0.7,0.3,0.7,0.7c0,0.4-0.3,0.7-0.7,0.7H64.8V55h18.7v8.1h-1.1v21.5h0.7V63.8h1.4v20.8h0.7V63.1h-1.1V55h3.2
			c0.8,0,1.4-0.6,1.4-1.4C88.8,52.9,88.1,52.2,87.4,52.2z M55.7,30.2c0-3,1.2-6,4.6-6c3.4,0,4.6,3,4.6,6c0,2.6-1.6,6-4.6,6
			C57.3,36.2,55.7,32.8,55.7,30.2z M56.4,30.2c0,2.2,1.3,5.3,3.9,5.3c2.5,0,3.9-3.1,3.9-5.3c0-1.6-0.4-5.3-3.9-5.3
			C56.7,24.9,56.4,28.6,56.4,30.2z M76.1,79.6c0.1,0.3,0.1,0.5,0,0.8c-0.1,0.3-0.3,0.5-0.6,0.6l-6.5,2.7c-0.1,0.1-0.3,0.1-0.4,0.1
			c-0.4,0-0.8-0.2-1-0.7c-0.7-1.6,0.1-3.5,1.7-4.1l1.2-0.5l-5.2-9.7l1.1,11.6c0,0,0,3.2,0,3.2c0,0.6-0.5,1.1-1.1,1.1h-7
			c-0.6,0-1.1-0.5-1.1-1.1c0-1.7,1.4-3.2,3.2-3.2h1.3L60.1,71c-0.6-2.8-0.6-5.6,0-8.4l1-5.2c-0.2,0-0.3,0.1-0.5,0.1
			c-0.5,0-1-0.1-1.4-0.4c-1.1-0.8-1.4-2.3-0.7-3.4L61,50l-1.4-7c-0.6-3.2,1.5-6.4,4.7-7c0.8-0.2,1.7,0,2.4,0.5
			c0.7,0.5,1.2,1.2,1.3,2l2.5,12.8l-0.7,0.1l-2.5-12.8c-0.1-0.6-0.5-1.2-1-1.6c-0.5-0.4-1.2-0.5-1.8-0.4c-2.9,0.6-4.7,3.4-4.1,6.2
			l1.3,6.3l0.4-0.5c0.8-1.2,1.1-2.6,0.8-4l-0.4-2.2c0-0.2,0.1-0.4,0.3-0.4c0.2,0,0.4,0.1,0.4,0.3l0.4,2.2c0.3,1.6,0,3.2-0.9,4.5
			l-3.4,5.1c-0.5,0.8-0.3,1.9,0.5,2.4c0.4,0.3,0.9,0.4,1.3,0.3c0.5-0.1,0.9-0.4,1.1-0.7l3.4-5.1c1.4-2.1,1.9-4.6,1.4-7.1l-0.7-3.7
			c0-0.2,0.1-0.4,0.3-0.4c0.2,0,0.4,0.1,0.4,0.3l0.7,3.7c0.5,2.7,0,5.4-1.5,7.7l-3.4,5.1c-0.2,0.3-0.5,0.5-0.8,0.7l-1.1,5.6
			c-0.5,2.7-0.5,5.4,0,8.1l1.9,9.5h3.2l-1.2-11.8L69,58.3c0.3-0.7,0.6-1.5,0.7-2.3l0.7,0.2c-0.1,0.3-0.2,0.6-0.3,1V65l5,12
			L76.1,79.6z M65.9,81.1h-5.3c-1.4,0-2.5,1.1-2.5,2.5c0,0.2,0.2,0.4,0.4,0.4h7c0.2,0,0.4-0.2,0.4-0.4V81.1z M71.2,78.2l3.1-1.3
			l-4.9-11.9v-6l-3.7,8.8L71.2,78.2z M75.5,79.9l-0.9-2.3l-4.9,2c-1.3,0.5-1.9,2-1.3,3.2c0.1,0.2,0.3,0.3,0.5,0.2l6.5-2.7
			c0.1,0,0.2-0.1,0.2-0.2C75.5,80.1,75.5,80,75.5,79.9z M39.8,26.9c0-3,1.2-6,4.6-6c3.4,0,4.6,3,4.6,6c0,2.6-1.6,6-4.6,6
			C41.5,32.9,39.8,29.5,39.8,26.9z M40.5,26.9c0,2.2,1.3,5.3,3.9,5.3c2.5,0,3.9-3.1,3.9-5.3c0-1.6-0.4-5.3-3.9-5.3
			C40.9,21.6,40.5,25.3,40.5,26.9z M51.5,56.1l0,27c0,0,0,0.1,0,0.1v0.7v0.7h-6.3v-0.3l-0.7-23.9l-0.7,23.9v0.3h-6.3v-0.7v-0.7
			c0,0,0-23.3,0-23.3c-0.4,0.5-1.1,0.7-1.8,0.7c-1.4,0-2.5-1.1-2.5-2.5v-2.1h0.7v2.1c0,1,0.8,1.8,1.8,1.8c1,0,1.8-0.8,1.8-1.8
			c0,0,0-2.1,0-2.1h0.7l0,25.3c0.5-0.4,1.2-0.6,2.5-0.6c1.3,0,2.1,0.3,2.5,0.7l0.7-23.3c0-0.5,0.3-0.8,0.6-0.8
			c0.3,0,0.6,0.3,0.6,0.8l0.7,23.3c0.5-0.4,1.2-0.7,2.5-0.7c1.2,0,2,0.3,2.5,0.6l0-25.3H51.5z M38.1,83.2l0,0.7H43v-0.7
			c0-0.9-0.2-1.8-2.5-1.8C38.3,81.4,38.1,82.3,38.1,83.2z M45.8,83.9h4.9l0-0.8c0-0.8-0.3-1.6-2.5-1.6c-2.3,0-2.5,0.9-2.5,1.8V83.9z
			 M33.9,38.8c0-0.5,0.1-1,0.2-1.4l2.9,2.9c0.3,2.6,0.4,3.7,0.5,10.9l0.7,0c0-7.3-0.2-8.4-0.5-11.1l0-0.1l-3.3-3.3
			c0.7-1.8,2.9-3.1,5.1-3.1h1.2l3.8,2.5l3.8-2.5h1.2c2.4,0,4,1.4,5.5,2.8l-3.2,3.2c-0.1,0.1-0.1,0.1-0.1,0.2c0,0-0.1,0.9-0.1,0.9
			c-0.3,2.2-0.6,5-0.7,10.5l0.7,0c0.1-5.4,0.4-8.1,0.7-10.4l0.1-0.8l0,0l6.8,6.3l0.5-0.5l-6.8-6.3l2.6-2.6l3,3l0.5-0.5l-3.3-3.3
			c-1.6-1.6-3.4-3.2-6.2-3.2H48l-3.6,2.4l-3.6-2.4h-1.4c-2.6,0-5.1,1.6-5.9,3.8c0,0-0.1,0.2-0.1,0.2c-0.2,0.6-0.4,1.3-0.4,2v12.3
			h0.7V38.8z"/>
	</g>
</g>
</svg>
