<?xml version="1.0" encoding="UTF-8"?>
<svg width="28px" height="39px" viewBox="0 0 28 39" version="1.1" xmlns="http://www.w3.org/2000/svg" xmlns:xlink="http://www.w3.org/1999/xlink">
    <!-- Generator: sketchtool 48.2 (47327) - http://www.bohemiancoding.com/sketch -->
    <title>4B3860FB-A6B3-40DD-94C9-D2AD77FB261C</title>
    <desc>Created with sketchtool.</desc>
    <defs></defs>
    <g id="OUBARI-GULF" stroke="none" stroke-width="1" fill="none" fill-rule="evenodd" transform="translate(-1007.000000, -1706.000000)" stroke-linecap="round" stroke-linejoin="round">
        <g id="Accessories" transform="translate(1008.000000, 1707.000000)" stroke="#6B6F82" stroke-width="1.5">
            <polyline id="Shape" points="0.980249977 3.0496666 0.980249977 0.194069692 5.47306237 0.194069692 5.47306237 3.0496666"></polyline>
            <path d="M25.8949369,32.7700538 L25.8949369,4.85174231 C25.8949369,4.85174231 25.2142077,1.5248333 22.627437,1.5248333 C20.0406662,1.5248333 14.3497705,1.5248333 13.0427705,1.5248333 C10.4287706,1.5248333 11.4634789,5.15670897 9.23068728,5.15670897 C6.99789567,5.15670897 6.34439569,3.10511508 6.34439569,3.10511508 L0.163374996,3.10511508 L0.163374996,8.28954829 L0.163374996,32.7700538" id="Shape"></path>
            <path d="M21.4565828,8.7608604 L14.6220622,8.7608604 C13.8324163,8.7608604 13.1789164,8.0954786 13.1789164,7.29147559 L13.1789164,6.2379544 C13.1789164,5.43395139 13.8324163,4.76856959 14.6220622,4.76856959 L21.4565828,4.76856959 C22.2462286,4.76856959 22.8997286,5.43395139 22.8997286,6.2379544 L22.8997286,7.29147559 C22.8997286,8.12320284 22.2462286,8.7608604 21.4565828,8.7608604 Z" id="Shape"></path>
            <path d="M0.163374996,32.7700538 C0.163374996,32.7700538 -0.027229166,36.3187567 4.2477499,36.3187567" id="Shape"></path>
            <path d="M4.43835406,36.346481 L12.961083,36.346481 C12.961083,36.346481 17.5083538,36.346481 21.7833328,36.346481 C26.0583119,36.346481 25.8677077,32.797778 25.8677077,32.797778" id="Shape"></path>
        </g>
    </g>
</svg>