<?xml version="1.0" encoding="UTF-8"?>
<svg width="11px" height="14px" viewBox="0 0 11 14" version="1.1" xmlns="http://www.w3.org/2000/svg" xmlns:xlink="http://www.w3.org/1999/xlink">
    <!-- Generator: sketchtool 48.2 (47327) - http://www.bohemiancoding.com/sketch -->
    <title>9473D02B-CA7B-4BBD-AE41-C73EABD56F0D</title>
    <desc>Created with sketchtool.</desc>
    <defs></defs>
    <g id="OUBARI-PRODUCT-CATEGORY" stroke="none" stroke-width="1" fill="none" fill-rule="evenodd" transform="translate(-346.000000, -855.000000)">
        <g id="Bag" transform="translate(347.000000, 856.000000)" fill="#1D1D27" fill-rule="nonzero" stroke="#1D1D27" stroke-width="0.4">
            <path d="M8.5921875,3.178125 L6.946875,3.178125 L6.946875,2.446875 C6.946875,1.096875 5.85,0 4.5,0 C3.15,0 2.053125,1.096875 2.053125,2.446875 L2.053125,3.178125 L0.4078125,3.178125 C0.253125,3.178125 0.1265625,3.3046875 0.1265625,3.459375 L0.1265625,12.375 C0.1265625,12.5296875 0.253125,12.65625 0.4078125,12.65625 L8.5921875,12.65625 C8.746875,12.65625 8.8734375,12.5296875 8.8734375,12.375 L8.8734375,3.459375 C8.8734375,3.3046875 8.746875,3.178125 8.5921875,3.178125 Z M2.615625,2.446875 C2.615625,1.40625 3.459375,0.5625 4.5,0.5625 C5.540625,0.5625 6.384375,1.40625 6.384375,2.446875 L6.384375,3.178125 L2.615625,3.178125 L2.615625,2.446875 Z M8.3109375,12.09375 L0.6890625,12.09375 L0.6890625,3.740625 L2.053125,3.740625 L2.053125,4.3171875 C2.053125,4.471875 2.1796875,4.5984375 2.334375,4.5984375 C2.4890625,4.5984375 2.615625,4.471875 2.615625,4.3171875 L2.615625,3.740625 L6.384375,3.740625 L6.384375,4.3171875 C6.384375,4.471875 6.5109375,4.5984375 6.665625,4.5984375 C6.8203125,4.5984375 6.946875,4.471875 6.946875,4.3171875 L6.946875,3.740625 L8.3109375,3.740625 L8.3109375,12.09375 Z" id="Shape"></path>
        </g>
    </g>
</svg>