<?xml version="1.0" encoding="UTF-8"?>
<svg width="35px" height="36px" viewBox="0 0 35 36" version="1.1" xmlns="http://www.w3.org/2000/svg" xmlns:xlink="http://www.w3.org/1999/xlink">
    <!-- Generator: sketchtool 48.2 (47327) - http://www.bohemiancoding.com/sketch -->
    <title>21EDF21D-24C2-4902-8C06-C6DB7F96024F</title>
    <desc>Created with sketchtool.</desc>
    <defs></defs>
    <g id="OUBARI-GULF" stroke="none" stroke-width="1" fill="none" fill-rule="evenodd" transform="translate(-1201.000000, -1706.000000)">
        <g id="Dyeing-and-Finishing" transform="translate(1202.000000, 1707.000000)" fill="#6B6F82" fill-rule="nonzero" stroke="#6B6F82" stroke-width="0.5">
            <path d="M31.95,0.05 L3.2,0.1 C1.2,0.1 0.2,1.05 0.2,2.85 L0.2,33.4 C0.2,33.7 0.4,33.9 0.7,33.9 L30.5,33.9 C30.8,33.9 31,33.7 31,33.4 L31,13.8 L33.25,13.8 C33.55,13.8 33.75,13.6 33.75,13.3 L33.75,2.05 C33.8,1.5 33.8,0.05 31.95,0.05 Z M3.2,1.1 L30.15,1.05 C29.95,1.45 29.95,1.85 30,1.95 L30,26.3 L1.2,26.3 L1.2,2.95 C1.15,2.05 1.3,1.1 3.2,1.1 Z M29.95,26.8 L29.95,28.55 L1.15,28.55 L1.15,26.8 L29.95,26.8 Z M1.15,32.95 L1.15,29.05 L29.95,29.05 L29.95,32.95 L1.15,32.95 Z M32.8,12.8 L31.05,12.8 L31.05,1.95 L31.05,1.9 C31.05,1.9 31.05,1.55 31.25,1.35 C31.4,1.2 31.7,1.1 32.05,1.1 C32.8,1.1 32.8,1.4 32.8,2.1 L32.8,12.8 Z" id="Shape"></path>
        </g>
    </g>
</svg>