<?xml version="1.0" encoding="UTF-8"?>
<svg width="23px" height="17px" viewBox="0 0 23 17" version="1.1" xmlns="http://www.w3.org/2000/svg" xmlns:xlink="http://www.w3.org/1999/xlink">
    <!-- Generator: sketchtool 48.2 (47327) - http://www.bohemiancoding.com/sketch -->
    <title>2DB12137-F13C-493C-83FC-A1DEC881BCA1</title>
    <desc>Created with sketchtool.</desc>
    <defs>
        <rect id="path-1" x="0" y="0" width="22.9012346" height="16.3580247" rx="2"></rect>
        <path d="M8.72427984,7.20526795 C8.72427984,6.83962337 9.02227331,6.54320988 9.39630438,6.54320988 L9.48169275,6.54320988 C9.66567098,6.54320988 9.88167531,6.67693087 9.96381155,6.84120335 L10.3600823,7.63374486 C10.3600823,7.63374486 10.9591466,6.54320988 11.4506173,6.54320988 C11.9958848,6.54320988 12.5411523,7.63374486 12.5411523,7.63374486 L12.937423,6.84120335 C13.0197116,6.6766261 13.238054,6.54320988 13.4195418,6.54320988 L13.5049302,6.54320988 C13.8760791,6.54320988 14.1769547,6.84513045 14.1769547,7.20526795 L14.1769547,9.15275674 C14.1769547,9.51840132 13.9213606,9.64441872 13.6231466,9.44560942 L12.5411523,8.72427984 L11.9958848,8.72427984 L11.9958848,9.14279027 C11.9958848,9.51393918 11.6978913,9.81481481 11.3238602,9.81481481 L11.5773743,9.81481481 C11.2062254,9.81481481 10.9053498,9.51682134 10.9053498,9.14279027 L10.9053498,8.72427984 L10.3600823,8.72427984 L9.27808793,9.44560942 C8.97222817,9.64951593 8.72427984,9.51289424 8.72427984,9.15275674 L8.72427984,7.20526795 Z" id="path-3"></path>
    </defs>
    <g id="OUBARI-GULF" stroke="none" stroke-width="1" fill="none" fill-rule="evenodd" transform="translate(-1143.000000, -23.000000)">
        <g id="EG" transform="translate(1143.000000, 23.000000)">
            <mask id="mask-2" fill="white">
                <use xlink:href="#path-1"></use>
            </mask>
            <g id="Mask">
                <use fill="#FFFFFF" fill-rule="evenodd" xlink:href="#path-1"></use>
                <rect stroke="#F5F5F5" stroke-width="0.5" x="0.25" y="0.25" width="22.4012346" height="15.8580247" rx="2"></rect>
            </g>
            <rect id="Rectangle-2" fill="#E41D33" mask="url(#mask-2)" x="0" y="0" width="22.9012346" height="5.4526749"></rect>
            <rect id="Rectangle-2" fill="#262626" mask="url(#mask-2)" x="0" y="10.9053498" width="22.9012346" height="5.4526749"></rect>
            <g id="Rectangle-129" mask="url(#mask-2)">
                <use fill-opacity="0.25" fill="#F4B32E" fill-rule="evenodd" xlink:href="#path-3"></use>
                <path stroke="#C6A846" stroke-width="0.666666667" d="M11.4506371,9.4573923 C11.4115798,9.47294443 11.3688196,9.48148148 11.3238602,9.48148148 L11.3238602,10.1481481 L11.5773743,10.1481481 L11.5773743,9.48148148 C11.5324655,9.48148148 11.4897105,9.47294859 11.4506371,9.4573923 Z"></path>
            </g>
        </g>
    </g>
</svg>