<?xml version="1.0" encoding="UTF-8"?>
<svg width="42px" height="42px" viewBox="0 0 42 42" version="1.1" xmlns="http://www.w3.org/2000/svg" xmlns:xlink="http://www.w3.org/1999/xlink">
    <!-- Generator: sketchtool 48.2 (47327) - http://www.bohemiancoding.com/sketch -->
    <title>7672C660-41CC-4156-9594-8005259653A8</title>
    <desc>Created with sketchtool.</desc>
    <defs></defs>
    <g id="OUBARI-GULF" stroke="none" stroke-width="1" fill="none" fill-rule="evenodd" transform="translate(-801.000000, -1702.000000)">
        <g id="Embroid" transform="translate(802.000000, 1703.000000)" fill="#6B6F82" fill-rule="nonzero" stroke="#6B6F82" stroke-width="0.2">
            <path d="M14.1826209,16.2869418 C13.8677531,14.7397468 12.496314,13.571886 10.8575088,13.571886 C9.21870357,13.571886 7.84726449,14.7397468 7.53239673,16.2869418 C5.64929755,16.2217967 4.0715658,17.7859566 4.0715658,19.6792347 C4.0715658,20.9692425 4.81666234,22.1194598 5.91937808,22.6874432 C5.60111736,23.2086037 5.4287544,23.8091596 5.4287544,24.4293948 C5.4287544,26.3002793 6.95084142,27.8223663 8.8217259,27.8223663 C9.55867931,27.8223663 10.2725605,27.5760366 10.8575088,27.1308787 C11.4424571,27.5760366 12.1563383,27.8223663 12.8932917,27.8223663 C14.7641762,27.8223663 16.2862632,26.3002793 16.2862632,24.4293948 C16.2862632,23.8091596 16.1139003,23.2086037 15.7956395,22.6874432 C16.8983553,22.1194598 17.6434518,20.9692425 17.6434518,19.6792347 C17.6434518,17.7859566 16.0677558,16.2272255 14.1826209,16.2869418 Z M14.5320969,21.6838023 C14.266088,21.721125 14.0475806,21.9111314 13.9736138,22.1689972 C13.8996471,22.4275416 13.9851499,22.7044081 14.190764,22.8767711 C14.6596727,23.2689986 14.9290746,23.8349462 14.9290746,24.4293948 C14.9290746,25.5517898 14.0156867,26.4651777 12.8932917,26.4651777 C12.3069862,26.4651777 11.765468,26.2147764 11.3684903,25.7607968 C11.2395574,25.6135419 11.0536226,25.5287176 10.8575088,25.5287176 C10.6613951,25.5287176 10.4754602,25.6135419 10.3465273,25.7607968 C9.94954963,26.2147764 9.40803138,26.4651777 8.8217259,26.4651777 C7.69933093,26.4651777 6.785943,25.5517898 6.785943,24.4293948 C6.785943,23.8349462 7.05534494,23.2689986 7.5242536,22.8767711 C7.73054627,22.7044081 7.81537056,22.4275416 7.74140378,22.1689972 C7.667437,21.9111314 7.44825104,21.721125 7.18292067,21.6838023 C6.18267267,21.5440118 5.4287544,20.6828757 5.4287544,19.6792347 C5.4287544,18.5568397 6.34214233,17.6434518 7.4645373,17.6434518 C7.61722102,17.6434518 7.78076225,17.6678812 7.97959038,17.720133 C8.18791883,17.7750991 8.40981916,17.7282761 8.57743196,17.5932358 C8.74572334,17.4588742 8.83936936,17.2519029 8.83122622,17.0374671 C8.82919044,16.9967514 8.82376169,16.9648575 8.8217259,16.9648575 C8.8217259,15.8424625 9.73511383,14.9290746 10.8575088,14.9290746 C11.9799038,14.9290746 12.8932917,15.8424625 12.8946489,16.9227847 C12.8912559,16.9451783 12.88447,17.0143949 12.8837914,17.0374671 C12.8749697,17.2519029 12.9692943,17.4588742 13.1375857,17.5932358 C13.3051984,17.7275975 13.5270988,17.7744205 13.7354272,17.720133 C13.9342554,17.6678812 14.0977966,17.6434518 14.2504803,17.6434518 C15.3728753,17.6434518 16.2862632,18.5568397 16.2862632,19.6792347 C16.2862632,20.6828757 15.5323449,21.5440118 14.5320969,21.6838023 Z" id="Shape"></path>
            <path d="M10.8575088,19.0006404 C9.73511383,19.0006404 8.8217259,19.9140283 8.8217259,21.0364233 C8.8217259,22.1588183 9.73511383,23.0722062 10.8575088,23.0722062 C11.9799038,23.0722062 12.8932917,22.1588183 12.8932917,21.0364233 C12.8932917,19.9140283 11.9799038,19.0006404 10.8575088,19.0006404 Z M10.8575088,21.7150176 C10.4836033,21.7150176 10.1789145,21.4110074 10.1789145,21.0364233 C10.1789145,20.6618393 10.4836033,20.357829 10.8575088,20.357829 C11.2314143,20.357829 11.5361031,20.6618393 11.5361031,21.0364233 C11.5361031,21.4110074 11.2314143,21.7150176 10.8575088,21.7150176 Z" id="Shape"></path>
            <rect id="Rectangle-path" x="21.0364233" y="23.7508005" width="1.3571886" height="1.3571886"></rect>
            <rect id="Rectangle-path" x="21.0364233" y="26.4651777" width="1.3571886" height="1.3571886"></rect>
            <rect id="Rectangle-path" x="21.0364233" y="29.1795549" width="1.3571886" height="1.3571886"></rect>
            <rect id="Rectangle-path" x="21.0364233" y="31.8939321" width="1.3571886" height="1.3571886"></rect>
            <rect id="Rectangle-path" x="18.3220461" y="31.8939321" width="1.3571886" height="1.3571886"></rect>
            <rect id="Rectangle-path" x="15.6076689" y="31.8939321" width="1.3571886" height="1.3571886"></rect>
            <rect id="Rectangle-path" x="12.8932917" y="31.8939321" width="1.3571886" height="1.3571886"></rect>
            <rect id="Rectangle-path" x="10.1789145" y="31.8939321" width="1.3571886" height="1.3571886"></rect>
            <rect id="Rectangle-path" x="10.1789145" y="29.1795549" width="1.3571886" height="1.3571886"></rect>
            <path d="M39.8382356,3.59179963 C38.8257729,2.57933694 37.1767887,2.57933694 36.164326,3.59179963 L34.786101,4.97002466 C33.1466172,3.97588401 31.2323027,3.3929715 29.1795549,3.3929715 L29.1795549,4.7501601 C30.8563614,4.7501601 32.4307002,5.1905678 33.7994249,5.95670077 L33.4499488,6.30617683 C32.6037418,7.15170533 32.4748088,8.43696294 33.0414351,9.4290678 L30.9561148,11.5143881 C29.0268712,9.29538473 26.5574665,7.55954051 23.7501219,6.52061263 L23.7501219,4.0715658 L24.4287162,4.0715658 C25.312246,4.0715658 26.0586997,3.50222518 26.3396378,2.7143772 L29.1795549,2.7143772 L29.1795549,1.3571886 L26.3403164,1.3571886 C26.0593783,0.569340618 25.3129246,0 24.4293948,0 L21.7150176,0 C20.8314878,0 20.0850341,0.569340618 19.8040961,1.3571886 L16.2862632,1.3571886 L16.2862632,0.6785943 C16.2862632,0.303331652 15.982253,0 15.6076689,0 L8.8217259,0 C8.44714185,0 8.1431316,0.303331652 8.1431316,0.6785943 L8.1431316,3.3929715 C8.1431316,3.76823415 8.44714185,4.0715658 8.8217259,4.0715658 L11.5361031,4.0715658 L11.5361031,6.51993404 C4.80851921,9.00969653 0,15.4895935 0,23.0722062 C0,32.8012127 7.91512392,40.715658 17.6434518,40.715658 C27.3717797,40.715658 35.2869036,32.8012127 35.2869036,23.0722062 C35.2869036,19.1431452 33.9948601,15.5106299 31.8145366,12.575031 L34.001646,10.3879215 C34.3993023,10.6152506 34.8410672,10.7394334 35.2869036,10.7394334 C35.951926,10.7394334 36.617627,10.4863177 37.1238584,9.98008638 L37.4733345,9.63061031 C38.2394674,10.999335 38.6798751,12.5736738 38.6798751,14.2504803 L38.6798751,32.5725264 L40.0370637,32.5725264 L40.0370637,14.2504803 C40.0370637,12.1977325 39.4541512,10.283418 38.4600106,8.6439342 L39.8382356,7.26570917 C40.8513769,6.25324648 40.8513769,4.60426233 39.8382356,3.59179963 Z M21.7150176,1.3571886 L24.4293948,1.3571886 C24.8033003,1.3571886 25.1079891,1.66119885 25.1079891,2.0357829 C25.1079891,2.41036695 24.8033003,2.7143772 24.4293948,2.7143772 L23.0722062,2.7143772 L21.7150176,2.7143772 C21.3411122,2.7143772 21.0364233,2.41036695 21.0364233,2.0357829 C21.0364233,1.66119885 21.3411122,1.3571886 21.7150176,1.3571886 Z M9.5003202,1.3571886 L14.9290746,1.3571886 L14.9290746,2.0357829 L14.9290746,2.7143772 L12.2146974,2.7143772 L9.5003202,2.7143772 L9.5003202,1.3571886 Z M12.8932917,6.08088353 L12.8932917,4.0715658 L15.6076689,4.0715658 C15.982253,4.0715658 16.2862632,3.76823415 16.2862632,3.3929715 L16.2862632,2.7143772 L19.7952743,2.7143772 C19.8034175,2.73744941 19.8156322,2.75780724 19.8244539,2.78020085 C19.839383,2.81752354 19.8563478,2.85348903 19.8733127,2.89013313 C19.9085996,2.96613569 19.9479581,3.03874528 19.9920667,3.10931908 C20.0131031,3.1425702 20.0327823,3.17582133 20.055176,3.20771526 C20.1121779,3.28846798 20.1752871,3.36379195 20.2431466,3.43504435 C20.2573971,3.44997342 20.2689332,3.46693828 20.2838622,3.48118876 C20.3680079,3.56465586 20.4596182,3.63930123 20.5573357,3.70716066 C20.5844795,3.7261613 20.6136591,3.74109038 20.64216,3.75873383 C20.7161268,3.80487824 20.7921294,3.84695109 20.8722035,3.88359518 C20.9095262,3.90056004 20.9468489,3.91548911 20.9848501,3.93041819 C21.0642457,3.96095493 21.1463556,3.98606292 21.2298227,4.00642075 C21.2671454,4.01524248 21.3031109,4.02609998 21.3411122,4.03356452 C21.4625805,4.05663673 21.5867633,4.0715658 21.7150176,4.0715658 L22.3936119,4.0715658 L22.3936119,6.08088353 C22.3712183,6.07477618 22.3481461,6.07070461 22.3250739,6.06391867 C21.6098355,5.86644773 20.8762751,5.71308541 20.1277855,5.60654611 C20.0477114,5.59501001 19.9669587,5.58618828 19.886206,5.57600937 C19.601875,5.53936527 19.3148296,5.51018572 19.026427,5.48779211 C18.9287094,5.48032757 18.8316704,5.47150584 18.7346314,5.4653985 C18.3736193,5.44368348 18.0105713,5.4287544 17.6434518,5.4287544 C17.2763323,5.4287544 16.9132843,5.44368348 16.5515936,5.46607709 C16.453876,5.47218444 16.356837,5.48100616 16.259798,5.4884707 C15.9713955,5.51086431 15.6850287,5.54004387 15.4000191,5.57668796 C15.3192663,5.58686687 15.2391922,5.5956886 15.1584395,5.6072247 C14.40995,5.71308541 13.6770681,5.86712632 12.9611511,6.06459726 C12.9387575,6.07070461 12.9156853,6.07477618 12.8932917,6.08088353 Z M33.929715,23.0722062 C33.929715,32.0520446 26.6232902,39.3584694 17.6434518,39.3584694 C8.66361343,39.3584694 1.3571886,32.0520446 1.3571886,23.0722062 C1.3571886,15.8872498 6.0360963,9.77854387 12.5051358,7.62129259 C13.7388202,7.21142163 15.0145775,6.95152001 16.3011923,6.8456593 C16.3168,6.84430211 16.3324076,6.84362352 16.3486939,6.84226633 C17.2105086,6.77372831 18.0770736,6.77372831 18.9395669,6.84226633 C18.9551746,6.84362352 18.9707823,6.84430211 18.9870685,6.8456593 C20.2736833,6.95152001 21.5494406,7.21142163 22.783125,7.62129259 C25.6108275,8.56453866 28.0944826,10.261703 29.9965825,12.4752776 L21.2352514,21.2352514 L22.1947838,22.1947838 L30.842111,13.5474566 C32.7815335,16.2285827 33.929715,19.5177293 33.929715,23.0722062 Z M36.164326,9.02055403 C35.6804883,9.50439177 34.8933189,9.50439177 34.4094812,9.02055403 C33.9256435,8.5367163 33.9256435,7.74954691 34.4094812,7.26570917 L34.9523566,6.72283373 C35.6112717,7.22974368 36.2002915,7.81876353 36.7072015,8.47767859 L36.164326,9.02055403 Z M38.8787033,6.30617683 L37.6755556,7.50932453 C37.1591453,6.85923119 36.570804,6.27156852 35.9207107,5.75447967 L37.1238584,4.55133197 C37.365438,4.3097524 37.6836987,4.18896262 38.0012808,4.18896262 C38.318863,4.18896262 38.6371237,4.3097524 38.8787033,4.55133197 C39.362541,5.03516971 39.362541,5.8223391 38.8787033,6.30617683 Z" id="Shape"></path>
            <rect id="Rectangle-path" x="38.6798751" y="36.6440922" width="1.3571886" height="1.3571886"></rect>
            <rect id="Rectangle-path" x="38.6798751" y="39.3584694" width="1.3571886" height="1.3571886"></rect>
            <rect id="Rectangle-path" x="38.6798751" y="33.929715" width="1.3571886" height="1.3571886"></rect>
        </g>
    </g>
</svg>