<?xml version="1.0" encoding="UTF-8"?>
<svg width="42px" height="37px" viewBox="0 0 42 37" version="1.1" xmlns="http://www.w3.org/2000/svg" xmlns:xlink="http://www.w3.org/1999/xlink">
    <!-- Generator: sketchtool 48.2 (47327) - http://www.bohemiancoding.com/sketch -->
    <title>CAFE656F-48D8-47FA-900A-733DDE81D943</title>
    <desc>Created with sketchtool.</desc>
    <defs></defs>
    <g id="OUBARI-GULF" stroke="none" stroke-width="1" fill="none" fill-rule="evenodd" transform="translate(-399.000000, -1705.000000)">
        <g id="Knitting" transform="translate(399.000000, 1705.000000)" fill="#6B6F82" fill-rule="nonzero" stroke="#6B6F82" stroke-width="0.3">
            <path d="M40.6059231,29.4270652 C39.9185769,29.1479565 39.4840385,28.7023478 39.2764615,28.0653043 C38.8023462,26.6150652 39.5938846,24.5543261 40.4920385,23.1081087 C41.8610769,20.9041957 41.3982692,18.7340652 40.3313077,17.5613261 C39.4824231,16.6274783 38.2773462,16.3033261 37.065,16.6274783 C36.6401538,14.7549565 35.8962692,13.0014783 34.8947308,11.4241522 C34.8688846,11.3606087 34.8357692,11.3043043 34.7913462,11.2544348 C34.2615,10.4412391 33.6621923,9.6771087 33.0015,8.9708913 L36.1579615,5.8258913 C36.6643846,6.16291304 37.2580385,6.34469565 37.8799615,6.34469565 C38.7078462,6.34469565 39.4864615,6.02295652 40.0720385,5.43980435 C40.6576154,4.85745652 40.9798846,4.08286957 40.9798846,3.25841304 C40.9798846,2.43476087 40.6576154,1.65936957 40.0720385,1.07621739 C38.9025,-0.0884782609 36.8614615,-0.0908913043 35.6870769,1.07621739 C34.6265769,2.13473913 34.4997692,3.774 35.3026154,4.97167391 L32.1405,8.1215 C29.3450769,5.53471739 25.662,3.89223913 21.5952692,3.70402174 C21.5161154,3.68471739 21.4385769,3.6798913 21.3594231,3.69195652 C21.1785,3.68632609 21.0024231,3.6646087 20.8206923,3.6646087 C16.4470385,3.6646087 12.4707692,5.36097826 9.49765385,8.11747826 L6.33796154,4.97167391 C7.14323077,3.77319565 7.01561538,2.13393478 5.9535,1.07621739 C4.78315385,-0.0892826087 2.74292308,-0.0900869565 1.56934615,1.07621739 C0.361846154,2.28193478 0.361846154,4.23971739 1.57015385,5.44221739 C2.15573077,6.02456522 2.93353846,6.3455 3.76142308,6.3455 C4.38334615,6.3455 4.977,6.16452174 5.48261538,5.82669565 L8.64392308,8.9741087 C6.63680769,11.1249348 5.18457692,13.7961739 4.54488462,16.7698478 C4.54003846,16.7875435 4.53438462,16.8044348 4.53115385,16.8237391 C4.29692308,17.9297174 4.17011538,19.0735 4.17011538,20.2470435 C4.17011538,23.4861522 5.12238462,26.5024565 6.74180769,29.0586739 C6.76926923,29.1302609 6.80723077,29.193 6.8565,29.2468913 C7.38553846,30.0576739 7.98323077,30.818587 8.6415,31.5231957 L5.09815385,35.0518696 C4.8615,35.2875435 4.8615,35.6696087 5.09815385,35.9052826 C5.21607692,36.0227174 5.37115385,36.0822391 5.52623077,36.0822391 C5.68130769,36.0822391 5.83638462,36.0235217 5.95430769,35.9052826 L9.50088462,32.372587 C12.2890385,34.9529348 15.9616154,36.5938043 20.0154231,36.7876522 C20.0727692,36.8045435 20.1309231,36.815 20.1890769,36.815 C20.2100769,36.815 20.2286538,36.8013261 20.2496538,36.798913 C20.4402692,36.8061522 20.6276538,36.8278696 20.8198846,36.8278696 C25.0626923,36.8278696 29.0543077,35.2416957 32.1453462,32.3766087 L35.6870769,35.9044783 C35.805,36.021913 35.9600769,36.0814348 36.1151538,36.0814348 C36.2702308,36.0814348 36.4253077,36.0227174 36.5432308,35.9044783 C36.7798846,35.6688043 36.7798846,35.2867391 36.5432308,35.0510652 L33.0063462,31.5288261 C35.0780769,29.3112391 36.477,26.6271304 37.0973077,23.7186087 C37.1021538,23.7017174 37.1061923,23.6864348 37.1094231,23.6695435 C37.3436538,22.5547174 37.4704615,21.4101304 37.4704615,20.2454348 C37.4704615,19.4177609 37.4066538,18.6045652 37.2863077,17.8098696 C38.1012692,17.5556957 38.8661538,17.7487391 39.4307308,18.3705 C40.1923846,19.2086304 40.4968846,20.8020435 39.459,22.4726739 C38.1101538,24.6428043 37.6101923,26.8732609 38.1214615,28.4377174 C38.4380769,29.4061522 39.1383462,30.134087 40.1463462,30.5435 C40.2214615,30.5740652 40.2981923,30.5885435 40.3749231,30.5885435 C40.614,30.5885435 40.8401538,30.4469783 40.9354615,30.212913 C41.0646923,29.9048478 40.9160769,29.5525435 40.6059231,29.4270652 Z M36.5448462,1.92802174 C36.9010385,1.5725 37.3759615,1.37704348 37.8799615,1.37704348 C38.3847692,1.37704348 38.8588846,1.5725 39.2150769,1.92802174 C39.5712692,2.28354348 39.7683462,2.75569565 39.7683462,3.2576087 C39.7683462,3.76032609 39.5720769,4.23086957 39.2150769,4.58558696 C38.5002692,5.29663043 37.2572308,5.29663043 36.5440385,4.5863913 C35.8098462,3.85443478 35.8098462,2.6623913 36.5448462,1.92802174 Z M5.09815385,4.58719565 C4.38496154,5.29743478 3.14030769,5.29663043 2.42711538,4.588 C1.69130769,3.85523913 1.69211538,2.6623913 2.42711538,1.92882609 C2.78411538,1.5741087 3.25823077,1.37865217 3.76303846,1.37865217 C4.26784615,1.37865217 4.74115385,1.5741087 5.09815385,1.92882609 C5.83396154,2.66158696 5.83396154,3.85443478 5.09815385,4.58719565 Z M21.7689231,4.91858696 C26.5028077,5.20654348 30.66,7.6203913 33.2946923,11.2214565 L15.9285,14.3632391 L21.7689231,4.91858696 Z M20.3611154,4.89365217 L14.3260385,14.6528043 L5.95026923,16.1681957 C7.71184615,9.80821739 13.4715,5.09715217 20.3611154,4.89365217 Z M19.8732692,35.5738913 C15.1385769,35.2859348 10.9821923,32.8712826 8.3475,29.2702174 L25.7145,26.1284348 L19.8732692,35.5738913 Z M31.7390769,31.1186087 C28.9315385,33.9137174 25.2306923,35.4846087 21.2810769,35.5996304 L27.3177692,25.8380652 L35.7,24.3218696 C35.0013462,26.8652174 33.6621923,29.2018478 31.7390769,31.1186087 Z M35.9980385,23.0413478 L7.61815385,28.1755 C6.20873077,25.8565652 5.38165385,23.1491304 5.38165385,20.2470435 C5.38165385,19.2906739 5.48180769,18.3576304 5.65061538,17.4495217 L34.0240385,12.3169783 C35.4334615,14.635913 36.2613462,17.3441522 36.2613462,20.2470435 C36.2613462,21.1945652 36.1660385,22.1276087 35.9980385,23.0413478 Z" id="Shape"></path>
        </g>
    </g>
</svg>