<?xml version="1.0" encoding="UTF-8"?>
<svg width="34px" height="39px" viewBox="0 0 34 39" version="1.1" xmlns="http://www.w3.org/2000/svg" xmlns:xlink="http://www.w3.org/1999/xlink">
    <!-- Generator: sketchtool 48.2 (47327) - http://www.bohemiancoding.com/sketch -->
    <title>986BC8CC-A554-4BA6-8031-91B090ADCF9E</title>
    <desc>Created with sketchtool.</desc>
    <defs></defs>
    <g id="OUBARI-GULF" stroke="none" stroke-width="1" fill="none" fill-rule="evenodd" transform="translate(-205.000000, -1704.000000)">
        <g id="Laundry-machine-icon" transform="translate(206.000000, 1705.000000)">
            <rect id="Rectangle-path" stroke="#6B6F82" stroke-width="1.5" stroke-linecap="round" stroke-linejoin="round" x="0.619047619" y="0.0225680423" width="30.7619048" height="36.3588624"></rect>
            <rect id="Rectangle-path" stroke="#6B6F82" stroke-width="1.5" stroke-linecap="round" stroke-linejoin="round" x="0.619047619" y="0.0225680423" width="30.7619048" height="7.90410053"></rect>
            <ellipse id="Oval" stroke="#6B6F82" stroke-width="1.5" stroke-linecap="round" stroke-linejoin="round" cx="15.9409048" cy="4.03547988" rx="1.2476381" ry="1.21817997"></ellipse>
            <path d="M16.0435524,30.2849977 C18.6458476,30.2849977 20.9756571,29.1706776 22.5783524,27.4118572 C20.7162857,26.5850883 18.9175238,25.2941906 16.9042381,23.9868524 C14.2410667,22.257119 10.6506667,22.9427207 7.64182857,24.1156892 C8.69501905,27.6771188 12.054219,30.2849977 16.0435524,30.2849977 Z" id="Shape" stroke="#6B6F82" stroke-width="1.5" stroke-linecap="round" stroke-linejoin="round"></path>
            <path d="M27.0799524,20.5370286 C27.1576667,21.056328 27.2112571,21.5828992 27.2112571,22.1229074 C27.2112571,22.6625994 27.1576667,23.1886963 27.0801143,23.7076795" id="Shape" stroke="#6B6F82" stroke-width="1.5" stroke-linecap="round" stroke-linejoin="round"></path>
            <path d="M27.0799524,20.5370286 C26.2888857,15.2518728 21.628781,11.1763605 15.9998381,11.1763605 C9.81815238,11.1763605 4.78890476,16.08702 4.78890476,22.1230654 C4.78890476,28.159427 9.81831429,33.0700866 15.9998381,33.0700866 C21.6292667,33.0700866 26.2896952,28.9937839 27.0801143,23.7078376" id="Shape" stroke="#6B6F82" stroke-width="1.5" stroke-linecap="round" stroke-linejoin="round"></path>
            <polyline id="Shape" stroke="#6B6F82" stroke-width="1.5" stroke-linecap="round" stroke-linejoin="round" points="27.0799524 20.5370286 24.4566095 20.5370286 24.4566095 23.7078376 27.0801143 23.7078376"></polyline>
            <ellipse id="Oval-2" fill="#6B6F82" cx="21.4285714" cy="4.4781746" rx="1" ry="1"></ellipse>
        </g>
    </g>
</svg>