<?xml version="1.0" encoding="UTF-8"?>
<svg width="23px" height="17px" viewBox="0 0 23 17" version="1.1" xmlns="http://www.w3.org/2000/svg" xmlns:xlink="http://www.w3.org/1999/xlink">
    <!-- Generator: sketchtool 48.2 (47327) - http://www.bohemiancoding.com/sketch -->
    <title>7765D90B-A621-47D1-AF2F-A66765CEF5CE</title>
    <desc>Created with sketchtool.</desc>
    <defs>
        <rect id="path-1" x="0" y="0" width="22.9012346" height="16.3580247" rx="2"></rect>
    </defs>
    <g id="OUBARI-GULF" stroke="none" stroke-width="1" fill="none" fill-rule="evenodd" transform="translate(-1020.000000, -23.000000)">
        <g id="LB" transform="translate(1020.000000, 23.000000)">
            <mask id="mask-2" fill="white">
                <use xlink:href="#path-1"></use>
            </mask>
            <g id="Mask">
                <use fill="#FFFFFF" fill-rule="evenodd" xlink:href="#path-1"></use>
                <rect stroke="#F5F5F5" stroke-width="0.5" x="0.25" y="0.25" width="22.4012346" height="15.8580247" rx="2"></rect>
            </g>
            <rect id="Rectangle-2" fill="#F03340" mask="url(#mask-2)" x="0" y="0" width="22.9012346" height="4.36213992"></rect>
            <rect id="Rectangle-2" fill="#F03340" mask="url(#mask-2)" x="0" y="11.9958848" width="22.9012346" height="4.36213992"></rect>
            <path d="M10.4365359,10.2836287 C10.6954547,10.0247099 10.6960946,9.60555955 10.4269428,9.33640777 L10.8384893,9.74795427 C10.5742724,9.48373738 10.0749455,9.34083148 9.71748603,9.43019634 L8.82160862,9.6541657 C8.4667125,9.74288973 8.41242504,9.63975525 8.70698854,9.41883262 L9.83210611,8.57499444 C10.1236993,8.35629954 10.0600509,8.1790123 9.69473882,8.1790123 L9.38962332,8.1790123 C9.02216426,8.1790123 8.99172182,8.0452913 9.32026679,7.88101882 L10.3093628,7.38647079 C10.6385173,7.22189354 10.6053184,7.08847732 10.2400063,7.08847732 L9.93489081,7.08847732 C9.56743175,7.08847732 9.50296002,6.9134178 9.79752352,6.69249517 L10.9226411,5.84865699 C11.2142343,5.62996209 11.68403,5.62773437 11.9785935,5.84865699 L13.103711,6.69249517 C13.3953042,6.91119007 13.3316559,7.08847732 12.9663438,7.08847732 L12.6612283,7.08847732 C12.2937692,7.08847732 12.2633268,7.22219831 12.5918717,7.38647079 L13.5809678,7.88101882 C13.9101223,8.04559607 13.8769233,8.1790123 13.5116112,8.1790123 L13.2064957,8.1790123 C12.8390367,8.1790123 12.774565,8.35407181 13.0691285,8.57499444 L14.194246,9.41883262 C14.4858392,9.63752752 14.4370854,9.74353056 14.0796259,9.6541657 L13.1837485,9.43019634 C12.8288524,9.34147231 12.331897,9.47880249 12.0627453,9.74795427 L12.4742918,9.33640777 C12.2100749,9.60062466 12.2061509,10.0250809 12.4646987,10.2836287 L12.6176059,10.4365359 C12.8765246,10.6954546 12.7844992,10.9053497 12.4243617,10.9053498 L10.4768729,10.9053498 C10.1112283,10.9053498 10.0250809,10.6950837 10.2836287,10.4365359 L10.4365359,10.2836287 Z" id="Rectangle-317" fill="#1FC065" mask="url(#mask-2)"></path>
        </g>
    </g>
</svg>