<?xml version="1.0" encoding="UTF-8"?>
<svg width="145px" height="33px" viewBox="0 0 145 33" version="1.1" xmlns="http://www.w3.org/2000/svg" xmlns:xlink="http://www.w3.org/1999/xlink">
    <!-- Generator: sketchtool 48.2 (47327) - http://www.bohemiancoding.com/sketch -->
    <title>23B46E46-E54F-419A-A939-B0E18B1A95A1</title>
    <desc>Created with sketchtool.</desc>
    <defs></defs>
    <g id="OUBARI-GULF" stroke="none" stroke-width="1" fill="none" fill-rule="evenodd" transform="translate(-153.000000, -24.000000)">
        <g id="Oubari-Glf-Logo" transform="translate(153.000000, 24.000000)">
            <path d="M0.732945205,7.62938356 C0.732945205,6.6163648 0.899792852,5.69572332 1.23349315,4.86743151 C1.56719345,4.03913969 2.0290039,3.33301662 2.61893836,2.7490411 C3.20887281,2.16506557 3.91201647,1.71517281 4.72839041,1.39934932 C5.54476436,1.08352582 6.44157046,0.925616438 7.41883562,0.925616438 C8.40801864,0.913698571 9.31376301,1.05969026 10.1360959,1.36359589 C10.9584288,1.66750152 11.6675313,2.11143544 12.2634247,2.69541096 C12.859318,3.27938648 13.3241079,3.98253013 13.6578082,4.80486301 C13.9915085,5.62719589 14.1583562,6.54485795 14.1583562,7.55787671 C14.1583562,8.54705974 13.9915085,9.44684526 13.6578082,10.2572603 C13.3241079,11.0676753 12.859318,11.7648601 12.2634247,12.3488356 C11.6675313,12.9328111 10.9584288,13.3886627 10.1360959,13.7164041 C9.31376301,14.0441455 8.40801864,14.2139725 7.41883562,14.2258904 C6.44157046,14.2258904 5.54476436,14.067981 4.72839041,13.7521575 C3.91201647,13.436334 3.20887281,12.9894207 2.61893836,12.4114041 C2.0290039,11.8333875 1.56719345,11.1391821 1.23349315,10.3287671 C0.899792852,9.51835211 0.732945205,8.61856659 0.732945205,7.62938356 Z M3.09267123,7.48636986 C3.09267123,8.16568833 3.19695101,8.791367 3.4055137,9.36342466 C3.61407639,9.93548231 3.90903919,10.4300664 4.29041096,10.8471918 C4.67178273,11.2643172 5.12763433,11.5920536 5.65797945,11.830411 C6.18832457,12.0687683 6.7812296,12.1879452 7.43671233,12.1879452 C8.09219506,12.1879452 8.68807951,12.0687683 9.22438356,11.830411 C9.76068761,11.5920536 10.2195186,11.2643172 10.6008904,10.8471918 C10.9822622,10.4300664 11.277225,9.93548231 11.4857877,9.36342466 C11.6943504,8.791367 11.7986301,8.16568833 11.7986301,7.48636986 C11.7986301,6.85472287 11.6943504,6.26479726 11.4857877,5.71657534 C11.277225,5.16835342 10.9822622,4.68866644 10.6008904,4.2775 C10.2195186,3.86633356 9.76068761,3.54455596 9.22438356,3.31215753 C8.68807951,3.07975911 8.09219506,2.96356164 7.43671233,2.96356164 C6.7812296,2.96356164 6.18832457,3.07975911 5.65797945,3.31215753 C5.12763433,3.54455596 4.67178273,3.86633356 4.29041096,4.2775 C3.90903919,4.68866644 3.61407639,5.16835342 3.4055137,5.71657534 C3.19695101,6.26479726 3.09267123,6.85472287 3.09267123,7.48636986 Z M26.7376028,9.25616438 C26.7376028,10.0189079 26.6065082,10.7071545 26.3443151,11.3209247 C26.082122,11.9346948 25.7245913,12.4560937 25.2717123,12.885137 C24.8188334,13.3141802 24.2825374,13.6448961 23.6628082,13.8772945 C23.0430791,14.1096929 22.3697297,14.2258904 21.6427397,14.2258904 C20.9157498,14.2258904 20.2424004,14.1096929 19.6226712,13.8772945 C19.0029421,13.6448961 18.4636667,13.3141802 18.0048288,12.885137 C17.5459909,12.4560937 17.1884602,11.9346948 16.932226,11.3209247 C16.6759919,10.7071545 16.5478767,10.0189079 16.5478767,9.25616438 L16.5478767,1.24739726 L18.8003425,1.24739726 L18.8003425,9.18465753 C18.8003425,9.4945221 18.8480132,9.81927912 18.9433562,10.1589384 C19.0386991,10.4985976 19.1966085,10.8114369 19.4170891,11.0974658 C19.6375696,11.3834946 19.929553,11.6188689 20.293048,11.8035959 C20.6565429,11.9883228 21.1064357,12.0806849 21.6427397,12.0806849 C22.1790438,12.0806849 22.6289366,11.9883228 22.9924315,11.8035959 C23.3559265,11.6188689 23.6479099,11.3834946 23.8683904,11.0974658 C24.088871,10.8114369 24.2467804,10.4985976 24.3421233,10.1589384 C24.4374662,9.81927912 24.485137,9.4945221 24.485137,9.18465753 L24.485137,1.24739726 L26.7376028,1.24739726 L26.7376028,9.25616438 Z M29.8064384,1.24739726 L34.740411,1.24739726 C35.2171257,1.24739726 35.6878744,1.30400628 36.1526713,1.41722603 C36.6174681,1.53044577 37.0316078,1.71516995 37.3951028,1.97140411 C37.7585977,2.22763827 38.0535605,2.55835414 38.28,2.96356164 C38.5064395,3.36876915 38.6196576,3.8573944 38.6196576,4.42945205 C38.6196576,5.14452412 38.4170568,5.73444973 38.0118493,6.19924658 C37.6066418,6.66404342 37.0763047,6.99773871 36.4208219,7.20034247 L36.4208219,7.23609589 C36.8141116,7.28376736 37.1805805,7.39400599 37.5202397,7.56681507 C37.859899,7.73962415 38.1489029,7.9601014 38.3872603,8.22825342 C38.6256177,8.49640545 38.8133213,8.80626537 38.9503767,9.15784247 C39.0874322,9.50941957 39.1559589,9.88780619 39.1559589,10.2930137 C39.1559589,10.98425 39.0189055,11.5592785 38.7447945,12.0181164 C38.4706836,12.4769543 38.1101735,12.8464027 37.6632534,13.1264726 C37.2163334,13.4065425 36.7038728,13.6061638 36.1258562,13.7253425 C35.5478396,13.8445211 34.9608934,13.9041096 34.365,13.9041096 L29.8064384,13.9041096 L29.8064384,1.24739726 Z M32.0589041,6.39589041 L34.1147261,6.39589041 C34.8655517,6.39589041 35.4286625,6.24989872 35.8040754,5.95791096 C36.1794882,5.6659232 36.3671918,5.28157773 36.3671918,4.80486301 C36.3671918,4.25664109 36.1735294,3.84846024 35.7861987,3.58030822 C35.398868,3.31215619 34.7761687,3.17808219 33.9180822,3.17808219 L32.0589041,3.17808219 L32.0589041,6.39589041 Z M32.0589041,11.9734247 L34.1326028,11.9734247 C34.4186316,11.9734247 34.7255121,11.9555481 35.0532534,11.9197945 C35.3809948,11.8840409 35.6819165,11.8006171 35.9560274,11.6695205 C36.2301384,11.538424 36.4565745,11.3507204 36.6353425,11.1064041 C36.8141105,10.8620878 36.9034932,10.5313719 36.9034932,10.1142466 C36.9034932,9.44684598 36.6859953,8.98205611 36.2509932,8.71986301 C35.815991,8.45766992 35.1396621,8.32657534 34.2219863,8.32657534 L32.0589041,8.32657534 L32.0589041,11.9734247 Z M45.7822603,1.24739726 L47.730822,1.24739726 L53.1832192,13.9041096 L50.6089726,13.9041096 L49.4291096,11.0080822 L43.9409589,11.0080822 L42.7968494,13.9041096 L40.2762329,13.9041096 L45.7822603,1.24739726 Z M48.6425343,9.07739726 L46.6939726,3.92890411 L44.7096576,9.07739726 L48.6425343,9.07739726 Z M54.8934247,1.24739726 L59.2910959,1.24739726 C59.8989072,1.24739726 60.4858534,1.30400628 61.0519521,1.41722603 C61.6180508,1.53044577 62.1215732,1.72410822 62.5625343,1.99821918 C63.0034954,2.27233014 63.3550672,2.6417785 63.6172603,3.10657534 C63.8794534,3.57137219 64.010548,4.16129779 64.010548,4.87636986 C64.010548,5.79404568 63.7572971,6.56273663 63.2507877,7.18246575 C62.7442783,7.80219488 62.0202787,8.17760208 61.0787672,8.30869863 L64.4395891,13.9041096 L61.7223288,13.9041096 L58.790548,8.54109589 L57.1458905,8.54109589 L57.1458905,13.9041096 L54.8934247,13.9041096 L54.8934247,1.24739726 Z M58.8978083,6.61041096 C59.2195907,6.61041096 59.5413683,6.59551385 59.8631507,6.56571918 C60.1849332,6.53592451 60.479896,6.46441837 60.748048,6.35119863 C61.0162,6.23797889 61.2336978,6.06517239 61.400548,5.83277397 C61.5673981,5.60037555 61.650822,5.27561852 61.650822,4.85849315 C61.650822,4.48903925 61.573357,4.19109702 61.4184247,3.96465753 C61.2634924,3.73821805 61.0608917,3.56839098 60.8106165,3.45517123 C60.5603413,3.34195149 60.283255,3.26746593 59.9793494,3.23171233 C59.6754437,3.19595873 59.3804809,3.17808219 59.0944521,3.17808219 L57.1458905,3.17808219 L57.1458905,6.61041096 L58.8978083,6.61041096 Z M66.4000686,1.24739726 L68.6525343,1.24739726 L68.6525343,13.9041096 L66.4000686,13.9041096 L66.4000686,1.24739726 Z" id="OUBARI" fill="#070707"></path>
            <path d="M124.752637,31.1829452 C124.456014,31.423951 124.101463,31.6186066 123.688973,31.7669178 C123.276482,31.9152291 122.782891,31.9893836 122.208185,31.9893836 C121.624209,31.9893836 121.100493,31.8665652 120.637021,31.6209247 C120.173548,31.3752842 119.781919,31.0253676 119.462123,30.5711644 C119.142327,30.1169612 118.89669,29.5747063 118.725205,28.9443836 C118.553721,28.3140608 118.467979,27.6142276 118.467979,26.844863 C118.467979,26.0940373 118.551403,25.4034735 118.718253,24.7731507 C118.885104,24.1428279 119.126106,23.5982557 119.441267,23.1394178 C119.756429,22.6805799 120.13647,22.3237113 120.581404,22.0688014 C121.026338,21.8138914 121.526881,21.6864384 122.083048,21.6864384 C122.667023,21.6864384 123.172201,21.7907181 123.598596,21.9992808 C124.024991,22.2078435 124.37259,22.5021442 124.641404,22.8821918 L123.682021,24.050137 C123.311242,23.5125087 122.810699,23.2436986 122.180377,23.2436986 C121.837407,23.2436986 121.538472,23.3410264 121.283562,23.5356849 C121.028652,23.7303434 120.817775,23.9922016 120.650925,24.3212671 C120.484075,24.6503327 120.358939,25.0326919 120.275514,25.4683562 C120.192089,25.9040204 120.150377,26.3628515 120.150377,26.844863 C120.150377,27.3454135 120.192089,27.8158311 120.275514,28.2561301 C120.358939,28.6964291 120.484075,29.0811057 120.650925,29.4101712 C120.817775,29.7392368 121.028652,29.9964603 121.283562,30.1818493 C121.538472,30.3672384 121.842042,30.4599315 122.194281,30.4599315 C122.416748,30.4599315 122.618355,30.4344409 122.79911,30.3834589 C122.979864,30.3324769 123.125856,30.2652744 123.237089,30.1818493 L123.237089,27.6373973 L122.041336,27.6373973 L122.041336,26.1913699 L124.752637,26.1913699 L124.752637,31.1829452 Z M132.765377,28.2908904 C132.765377,28.8099798 132.709761,29.2966187 132.598527,29.7508219 C132.487294,30.2050251 132.306542,30.6012883 132.056267,30.9396233 C131.805992,31.2779583 131.483883,31.5444511 131.089932,31.7391096 C130.69598,31.9337681 130.216293,32.0310959 129.650856,32.0310959 C129.08542,32.0310959 128.60805,31.9337681 128.218733,31.7391096 C127.829416,31.5444511 127.511942,31.2779583 127.266301,30.9396233 C127.020661,30.6012883 126.844544,30.2050251 126.737945,29.7508219 C126.631346,29.2966187 126.578048,28.8099798 126.578048,28.2908904 L126.578048,21.9367123 L128.246541,21.9367123 L128.246541,28.1379452 C128.246541,28.4438371 128.267397,28.7381379 128.30911,29.0208562 C128.350822,29.3035745 128.424977,29.5515286 128.531575,29.764726 C128.638174,29.9779234 128.784166,30.1470884 128.969555,30.272226 C129.154944,30.3973636 129.391311,30.4599315 129.678664,30.4599315 C129.966017,30.4599315 130.202385,30.3973636 130.387774,30.272226 C130.573163,30.1470884 130.719155,29.9779234 130.825753,29.764726 C130.932352,29.5515286 131.006507,29.3035745 131.048219,29.0208562 C131.089932,28.7381379 131.110788,28.4438371 131.110788,28.1379452 L131.110788,21.9367123 L132.765377,21.9367123 L132.765377,28.2908904 Z M134.813253,31.7808219 L134.813253,21.9367123 L136.495651,21.9367123 L136.495651,30.2374658 L139.206952,30.2374658 L139.206952,31.7808219 L134.813253,31.7808219 Z M142.158596,23.4383562 L142.158596,26.1218493 L144.689144,26.1218493 L144.689144,27.5539726 L142.1725,27.5539726 L142.1725,31.7808219 L140.490103,31.7808219 L140.490103,21.9367123 L144.897705,21.9367123 L144.897705,23.4383562 L142.158596,23.4383562 Z" id="GULF" fill="#5C1916"></path>
            <rect id="Rectangle-4" fill="#5C1916" x="0.993150685" y="16.8835616" width="144.006849" height="1.98630137"></rect>
        </g>
    </g>
</svg>