<?xml version="1.0" encoding="UTF-8"?>
<svg width="46px" height="30px" viewBox="0 0 46 30" version="1.1" xmlns="http://www.w3.org/2000/svg" xmlns:xlink="http://www.w3.org/1999/xlink">
    <!-- Generator: sketchtool 48.2 (47327) - http://www.bohemiancoding.com/sketch -->
    <title>3B612044-1C77-48F1-A688-967E3B127791</title>
    <desc>Created with sketchtool.</desc>
    <defs></defs>
    <g id="OUBARI-GULF" stroke="none" stroke-width="1" fill="none" fill-rule="evenodd" transform="translate(-1198.000000, -1712.000000)">
        <g id="Other-Machines" transform="translate(1199.000000, 1713.000000)" fill="#6B6F82" fill-rule="nonzero" stroke="#6B6F82" stroke-width="0.5">
            <path d="M34.6054054,12.2779412 C34.7243243,12.1593137 34.7837838,11.9813725 34.7243243,11.8034314 L34.0108108,6.99901961 C33.9513514,6.70245098 33.7135135,6.46519608 33.4162162,6.46519608 L22.3567568,6.46519608 C19.5027027,6.46519608 16.0540541,8.54117647 15.6972973,11.3882353 L15.6378378,11.8034314 C15.6378378,11.9813725 15.6972973,12.1593137 15.7567568,12.2779412 C15.8162162,12.3965686 16.0540541,12.4558824 16.2324324,12.4558824 L34.2486486,12.4558824 C34.3675676,12.4558824 34.5459459,12.3965686 34.6054054,12.2779412 Z M16.8864865,11.2696078 C17.3621622,9.25294118 20.1567568,7.65147059 22.3567568,7.65147059 L32.9405405,7.65147059 L33.4756757,11.2696078 L16.8864865,11.2696078 Z" id="Shape"></path>
            <path d="M29.1351351,14.9470588 L26.9351351,14.9470588 C26.5783784,14.9470588 26.3405405,15.1843137 26.3405405,15.5401961 C26.3405405,15.8960784 26.5783784,16.1333333 26.9351351,16.1333333 L29.1351351,16.1333333 C29.4918919,16.1333333 29.7297297,15.8960784 29.7297297,15.5401961 C29.7297297,15.1843137 29.4324324,14.9470588 29.1351351,14.9470588 Z" id="Shape"></path>
            <path d="M33.4756757,13.820098 C32.5243243,13.820098 31.7513514,14.5911765 31.7513514,15.5401961 C31.7513514,16.4892157 32.5243243,17.2602941 33.4756757,17.2602941 C34.427027,17.2602941 35.2,16.4892157 35.2,15.5401961 C35.2,14.5911765 34.427027,13.820098 33.4756757,13.820098 Z M33.4756757,16.0740196 C33.1783784,16.0740196 32.9405405,15.8367647 32.9405405,15.5401961 C32.9405405,15.2436275 33.1783784,15.0063725 33.4756757,15.0063725 C33.772973,15.0063725 34.0108108,15.2436275 34.0108108,15.5401961 C34.0108108,15.8367647 33.772973,16.0740196 33.4756757,16.0740196 Z" id="Shape"></path>
            <path d="M43.3459459,21.5901961 L40.7297297,21.5901961 L37.9351351,3.2622549 C37.8756757,2.96568627 37.6378378,2.72843137 37.3405405,2.72843137 L26.6378378,2.72843137 L26.6378378,0.830392157 C26.6378378,0.474509804 26.4,0.237254902 26.0432432,0.237254902 L22.1189189,0.237254902 C21.7621622,0.237254902 21.5243243,0.474509804 21.5243243,0.830392157 L21.5243243,2.84705882 C10.6432432,3.85539216 1.78378378,12.3372549 0.356756757,23.3102941 L0.118918919,25.2083333 C0.118918919,25.2083333 0.118918919,25.2083333 0.118918919,25.2676471 C0.118918919,25.2676471 0.118918919,25.2676471 0.118918919,25.3269608 L0.118918919,27.6401961 C0.118918919,27.9960784 0.356756757,28.2333333 0.713513514,28.2333333 L34.0108108,28.2333333 C34.3675676,28.2333333 34.6054054,27.9960784 34.6054054,27.6401961 L34.6054054,25.920098 L40.6702703,25.920098 C40.8486486,25.920098 41.027027,25.8607843 41.1459459,25.7421569 C41.2648649,25.6235294 41.3243243,25.4455882 41.2648649,25.2676471 L40.9081081,22.8357843 L43.3459459,22.8357843 C43.7027027,22.8357843 43.9405405,22.5985294 43.9405405,22.2426471 C43.9405405,21.8867647 43.6432432,21.5901961 43.3459459,21.5901961 Z M22.7135135,2.7877451 L22.7135135,1.48284314 L25.4486486,1.48284314 L25.4486486,2.7877451 L23.7837838,2.7877451 L22.7135135,2.7877451 Z M33.4162162,26.9877451 L1.30810811,26.9877451 L1.30810811,25.8607843 L33.4162162,25.8607843 L33.4162162,26.9877451 Z M34.0108108,24.7338235 L1.36756757,24.7338235 L1.54594595,23.547549 C2.91351351,12.3372549 12.4864865,3.97401961 23.7243243,3.97401961 L25.9837838,3.97401961 L36.8054054,3.97401961 L39.9567568,24.7338235 L34.0108108,24.7338235 Z" id="Shape"></path>
        </g>
    </g>
</svg>