<?xml version="1.0" encoding="UTF-8"?>
<svg width="32px" height="32px" viewBox="0 0 32 32" version="1.1" xmlns="http://www.w3.org/2000/svg" xmlns:xlink="http://www.w3.org/1999/xlink">
    <!-- Generator: sketchtool 48.2 (47327) - http://www.bohemiancoding.com/sketch -->
    <title>4F2D4D46-6376-47B6-BB28-473181943F4E</title>
    <desc>Created with sketchtool.</desc>
    <defs></defs>
    <g id="OUBARI-GULF" stroke="none" stroke-width="1" fill="none" fill-rule="evenodd" transform="translate(-777.000000, -467.000000)">
        <g id="Player" transform="translate(778.000000, 468.000000)">
            <circle id="Oval" stroke="#FFFFFF" stroke-width="2" opacity="0.249999985" cx="15" cy="15" r="15"></circle>
            <path d="M19.2269231,14.855131 C19.2269231,15.3653108 18.9970999,15.8138813 18.6454428,16.1094671 L18.6495962,16.1156973 L14.8035193,19.3442975 L14.7993658,19.3387596 C14.535623,19.5602759 14.2061175,19.6980314 13.8426923,19.6980314 C12.9926234,19.6980314 12.3038462,18.9753344 12.3038462,18.0837312 L12.3038462,16.9228473 L12.3038462,12.7874147 L12.3038462,11.6265308 C12.3038462,10.7349277 12.9926234,10.0115385 13.8426923,10.0115385 C14.2061175,10.0115385 14.535623,10.1492939 14.7993658,10.3708102 L14.8035193,10.3659646 L18.6495962,13.5945648 L18.6454428,13.6001027 C18.9970999,13.8963807 19.2269231,14.3456435 19.2269231,14.855131 L19.2269231,14.855131 Z" id="Shape" fill="#FFFFFF"></path>
        </g>
    </g>
</svg>