<?xml version="1.0" encoding="UTF-8"?>
<svg width="42px" height="39px" viewBox="0 0 42 39" version="1.1" xmlns="http://www.w3.org/2000/svg" xmlns:xlink="http://www.w3.org/1999/xlink">
    <!-- Generator: sketchtool 48.2 (47327) - http://www.bohemiancoding.com/sketch -->
    <title>7EA115E4-B9CC-4A65-8FEF-B205A1962675</title>
    <desc>Created with sketchtool.</desc>
    <defs></defs>
    <g id="OUBARI-GULF" stroke="none" stroke-width="1" fill="none" fill-rule="evenodd" transform="translate(-1001.000000, -1704.000000)">
        <g id="Sewing" transform="translate(1001.000000, 1705.000000)" fill="#6B6F82" fill-rule="nonzero" stroke="#6B6F82" stroke-width="0.5">
            <path d="M41.0090625,8.7961714 L38.6301562,8.7961714 L38.6301562,5.54833429 C38.6301562,5.2795209 38.4096562,5.06135351 38.1379687,5.06135351 L30.25575,5.06135351 L30.25575,2.40828226 L30.967125,2.40828226 C31.2388125,2.40828226 31.4593125,2.19011487 31.4593125,1.92130148 L31.4593125,0.51360239 C31.4593125,0.244789003 31.2388125,0.0266216157 30.967125,0.0266216157 L24.62775,0.0266216157 C24.3560625,0.0266216157 24.1355625,0.244789003 24.1355625,0.51360239 L24.1355625,1.4927584 L10.3169062,3.2556288 L8.5246875,3.2556288 C8.253,3.2556288 8.0325,3.47379619 8.0325,3.74260958 L8.0325,5.06135351 L6.40696875,5.06135351 C6.276375,5.06135351 6.15103125,5.11264882 6.05915625,5.20420121 L3.5555625,7.68066077 C3.46303125,7.77221316 3.4111875,7.89558162 3.4111875,8.02479385 L3.4111875,19.0734137 C3.4111875,19.342227 3.6316875,19.5603944 3.903375,19.5603944 L8.0325,19.5603944 L8.0325,25.0256173 C8.0325,25.2944307 8.253,25.5125981 8.5246875,25.5125981 C8.796375,25.5125981 9.016875,25.2944307 9.016875,25.0256173 L9.016875,19.5603944 L11.6399062,19.5603944 C11.7705,19.5603944 11.8958437,19.5090991 11.9877187,19.4175467 L14.4913125,16.9404379 C14.5838437,16.8488855 14.6356875,16.725517 14.6356875,16.5963048 L14.6356875,13.8270075 L21.32025,13.8270075 L23.5364062,16.0190702 L23.5364062,27.7306332 L0.99225,27.7306332 C0.7205625,27.7306332 0.5000625,27.9488006 0.5000625,28.217614 L0.5000625,37.1462442 C0.5000625,37.4150575 0.7205625,37.6332249 0.99225,37.6332249 L38.138625,37.6332249 C38.4103125,37.6332249 38.6308125,37.4150575 38.6308125,37.1462442 L38.6308125,16.7235691 L41.0097187,16.7235691 C41.2814062,16.7235691 41.5019062,16.5054017 41.5019062,16.2365883 L41.5019062,9.28315217 C41.50125,9.01433879 41.28075,8.7961714 41.0090625,8.7961714 Z M25.1192812,1.00058316 L30.4742812,1.00058316 L30.4742812,1.43432071 L25.1192812,1.43432071 L25.1192812,1.00058316 Z M26.3228437,4.78474843 L26.3228437,4.03869389 L29.2707187,2.68488734 L29.2707187,3.43094188 L26.3228437,4.78474843 Z M29.271375,4.50554612 L29.271375,5.06070421 L28.06125,5.06070421 L29.271375,4.50554612 Z M26.3228437,2.96408965 L26.3228437,2.40828226 L27.5329687,2.40828226 L26.3228437,2.96408965 Z M10.8419062,4.17115266 L24.6605625,2.40828226 L25.3384687,2.40828226 L25.3384687,5.06135351 L10.8419062,5.06135351 L10.8419062,4.17115266 Z M9.016875,4.22959035 L9.85753125,4.22959035 L9.85753125,5.06135351 L9.016875,5.06135351 L9.016875,4.22959035 Z M4.66921875,28.7045948 L12.3801562,28.7045948 L12.3801562,29.5707712 L4.66921875,29.5707712 L4.66921875,28.7045948 Z M37.6457812,36.6592634 L1.4844375,36.6592634 L1.4844375,28.7045948 L3.68484375,28.7045948 L3.68484375,30.057752 C3.68484375,30.3265654 3.90534375,30.5447328 4.17703125,30.5447328 L12.8723437,30.5447328 C13.1440312,30.5447328 13.3645312,30.3265654 13.3645312,30.057752 L13.3645312,28.7045948 L37.6457812,28.7045948 L37.6457812,36.6592634 Z M37.6457812,27.7306332 L24.5207812,27.7306332 L24.5207812,15.8171355 C24.5207812,15.6879233 24.4682812,15.5639055 24.37575,15.4730025 L21.8715,12.9958936 C21.7789687,12.9043412 21.6542812,12.8530459 21.5243437,12.8530459 L14.6356875,12.8530459 L14.6356875,11.4037911 C14.6356875,11.1349777 14.4151875,10.9168103 14.1435,10.9168103 C13.8718125,10.9168103 13.6513125,11.1349777 13.6513125,11.4037911 L13.6513125,16.3950194 L11.4358125,18.5870822 L4.3955625,18.5870822 L4.3955625,8.22672855 L6.61040625,6.03531506 L37.6457812,6.03531506 L37.6457812,27.7306332 Z M40.516875,15.7496075 L38.6301562,15.7496075 L38.6301562,9.77013295 L40.516875,9.77013295 L40.516875,15.7496075 Z M30.9730312,23.8393322 C32.3925,23.8393322 33.5481562,22.6965506 33.5481562,21.2920981 C33.5481562,19.8869962 32.3925,18.7442147 30.9730312,18.7442147 C29.5529062,18.7442147 28.3979062,19.8869962 28.3979062,21.2920981 C28.3979062,22.6965506 29.5529062,23.8393322 30.9730312,23.8393322 Z M30.9730312,19.7181762 C31.8497812,19.7181762 32.5637812,20.4239737 32.5637812,21.2920981 C32.5637812,22.1595732 31.8497812,22.8653706 30.9730312,22.8653706 C30.0962812,22.8653706 29.3822812,22.1595732 29.3822812,21.2920981 C29.3822812,20.4239737 30.0962812,19.7181762 30.9730312,19.7181762 Z M30.4486875,13.7270141 L31.4960625,13.7270141 C32.3879062,13.7270141 33.1189687,13.0329041 33.1649062,12.1621825 C33.1675312,12.1329637 33.1688437,12.1037448 33.1688437,12.0738767 C33.1688437,11.5362499 32.7298125,11.0999151 32.1857812,11.0999151 L31.4652187,11.0999151 L31.4652187,9.3441871 C31.4652187,9.07537371 31.2447187,8.85720632 30.9730312,8.85720632 C30.7013437,8.85720632 30.4808437,9.07537371 30.4808437,9.3441871 L30.4808437,11.0999151 L29.7629062,11.0999151 C29.218875,11.0999151 28.7785312,11.5362499 28.7785312,12.0738767 C28.7791875,12.9848554 29.5279687,13.7270141 30.4486875,13.7270141 Z M32.1831562,12.0738767 C32.1831562,12.4491765 31.875375,12.7530525 31.4960625,12.7530525 L30.4486875,12.7530525 C30.0706875,12.7530525 29.7629062,12.4491765 29.7629062,12.0738767 L32.1831562,12.0738767 Z" id="Shape"></path>
        </g>
    </g>
</svg>