<?xml version="1.0" encoding="UTF-8"?>
<svg width="27px" height="43px" viewBox="0 0 27 43" version="1.1" xmlns="http://www.w3.org/2000/svg" xmlns:xlink="http://www.w3.org/1999/xlink">
    <!-- Generator: sketchtool 48.2 (47327) - http://www.bohemiancoding.com/sketch -->
    <title>F5CE7AA1-5808-4AB3-B300-6D3F9E44F02E</title>
    <desc>Created with sketchtool.</desc>
    <defs></defs>
    <g id="OUBARI-GULF" stroke="none" stroke-width="1" fill="none" fill-rule="evenodd" transform="translate(-603.000000, -1702.000000)">
        <g id="Weaving" transform="translate(603.000000, 1702.000000)" fill="#6B6F82" fill-rule="nonzero">
            <path d="M15.7586538,12.7934738 C11.9423077,-0.708235294 8.93076923,-2.28444832 10.7169231,6.9701015 C10.9921154,6.92448761 11.2673077,6.87887373 11.5476923,6.84339627 C11.0751923,4.77049874 10.9142308,3.26524064 11.1998077,3.18921751 C11.5840385,3.08278511 12.6328846,5.57127578 13.5311538,8.76424752 C14.4294231,11.9572193 14.85,14.5977562 14.4657692,14.7041886 C14.0815385,14.810621 13.0690385,12.4032217 12.1811538,9.30654589 C11.8540385,9.33695515 11.5373077,9.37750082 11.2361538,9.4231147 C11.5373077,10.715508 11.9111538,12.1498112 12.3628846,13.7361606 C15.145393,23.5095067 18.4893367,33.1222121 22.3788462,42.5286566 C20.745917,32.5034478 18.5356845,22.575992 15.7586538,12.7934738 Z" id="Shape"></path>
            <path d="M10.0990385,9.09368111 C11.0740349,8.88970539 12.0633608,8.75755963 13.0586538,8.6983608 C12.8925,8.1408578 12.7367308,7.62390047 12.6121154,7.23364837 C9.12807692,7.49212703 6.01269231,8.57165557 3.66057692,11.2273971 C1.38068128,13.8987367 0.167237227,17.2846572 0.244038462,20.7606985 C0.244038462,25.4639965 2.46115385,29.498291 3.87865385,33.88736 C4.17461538,34.8199105 5.68038462,34.419522 5.37923077,33.4819033 C3.915,28.9509244 1.55769231,24.7848565 1.8225,19.8838983 C2.08730769,14.9829401 5.01057692,10.2745738 10.0990385,9.09368111 Z" id="Shape"></path>
            <path d="M26.5223077,0.827432064 C26.4807692,0.224315181 25.8732692,0.280065481 25.9251923,0.933864455 C26.3821154,7.01571538 19.1336538,7.01571538 14.445,7.15255702 L14.9642308,8.57165557 C20.4680769,8.24222198 26.8546154,7.81142421 26.5223077,0.827432064 Z" id="Shape"></path>
        </g>
    </g>
</svg>